<?xml version="1.0" encoding="UTF-8" standalone="no"?>
<!DOCTYPE svg PUBLIC "-//W3C//DTD SVG 1.1//EN"
 "http://www.w3.org/Graphics/SVG/1.1/DTD/svg11.dtd">
<!-- Generated by graphviz version 2.40.1 (20161225.0304)
 -->
<!-- Title: g Pages: 1 -->
<svg width="288pt" height="234pt"
 viewBox="0.00 0.00 288.00 234.23" xmlns="http://www.w3.org/2000/svg" xmlns:xlink="http://www.w3.org/1999/xlink">
<g id="graph0" class="graph" transform="scale(.447 .447) rotate(0) translate(4 520)">
<title>g</title>
<polygon fill="#ffffff" stroke="transparent" points="-4,4 -4,-520 640.2844,-520 640.2844,4 -4,4"/>
<!-- TX_IDLE -->
<g id="node1" class="node">
<title>TX_IDLE</title>
<ellipse fill="none" stroke="#000000" cx="334.2844" cy="-498" rx="46.5926" ry="18"/>
<text text-anchor="middle" x="334.2844" y="-494.3" font-family="Times,serif" font-size="14.00" fill="#000000">TX_IDLE</text>
</g>
<!-- WAIT_IFG -->
<g id="node2" class="node">
<title>WAIT_IFG</title>
<ellipse fill="none" stroke="#000000" cx="166.2844" cy="-396" rx="52.7911" ry="18"/>
<text text-anchor="middle" x="166.2844" y="-392.3" font-family="Times,serif" font-size="14.00" fill="#000000">WAIT_IFG</text>
</g>
<!-- TX_IDLE&#45;&gt;WAIT_IFG -->
<g id="edge2" class="edge">
<title>TX_IDLE&#45;&gt;WAIT_IFG</title>
<path fill="none" stroke="#000000" d="M294.2214,-488.6135C274.3194,-482.8341 250.4874,-474.1637 231.2844,-462 214.1353,-451.1373 198.0949,-434.9408 186.2391,-421.3114"/>
<polygon fill="#000000" stroke="#000000" points="188.8906,-419.0265 179.7654,-413.643 183.5417,-423.542 188.8906,-419.0265"/>
<text text-anchor="middle" x="275.7844" y="-450.8" font-family="Times,serif" font-size="14.00" fill="#000000">msg from upper</text>
<text text-anchor="middle" x="275.7844" y="-435.8" font-family="Times,serif" font-size="14.00" fill="#000000">no burst</text>
</g>
<!-- SEND_IFG -->
<g id="node3" class="node">
<title>SEND_IFG</title>
<ellipse fill="none" stroke="#000000" cx="246.2844" cy="-192" rx="51.9908" ry="18"/>
<text text-anchor="middle" x="246.2844" y="-188.3" font-family="Times,serif" font-size="14.00" fill="#000000">SEND_IFG</text>
</g>
<!-- TX_IDLE&#45;&gt;SEND_IFG -->
<g id="edge1" class="edge">
<title>TX_IDLE&#45;&gt;SEND_IFG</title>
<path fill="none" stroke="#000000" d="M288.142,-494.8582C212.9909,-486.8945 66.7787,-458.8144 9.2844,-360 -37.9998,-278.7334 109.2606,-226.7364 192.8011,-204.475"/>
<polygon fill="#000000" stroke="#000000" points="193.8611,-207.8158 202.6557,-201.9077 192.0963,-201.0419 193.8611,-207.8158"/>
<text text-anchor="middle" x="53.7844" y="-348.8" font-family="Times,serif" font-size="14.00" fill="#000000">msg from upper</text>
<text text-anchor="middle" x="53.7844" y="-333.8" font-family="Times,serif" font-size="14.00" fill="#000000">in burst</text>
</g>
<!-- TRANSMITTING -->
<g id="node4" class="node">
<title>TRANSMITTING</title>
<ellipse fill="none" stroke="#000000" cx="261.2844" cy="-294" rx="77.1866" ry="18"/>
<text text-anchor="middle" x="261.2844" y="-290.3" font-family="Times,serif" font-size="14.00" fill="#000000">TRANSMITTING</text>
</g>
<!-- WAIT_IFG&#45;&gt;TRANSMITTING -->
<g id="edge3" class="edge">
<title>WAIT_IFG&#45;&gt;TRANSMITTING</title>
<path fill="none" stroke="#000000" d="M153.0068,-378.2957C144.1159,-364.1073 135.7919,-344.2793 146.2844,-330 152.5152,-321.5206 171.6059,-314.1465 192.4879,-308.3183"/>
<polygon fill="#000000" stroke="#000000" points="193.4001,-311.6974 202.1687,-305.7508 191.6056,-304.9314 193.4001,-311.6974"/>
<text text-anchor="middle" x="192.7844" y="-341.3" font-family="Times,serif" font-size="14.00" fill="#000000">gap time elapsed</text>
</g>
<!-- SEND_IFG&#45;&gt;TRANSMITTING -->
<g id="edge4" class="edge">
<title>SEND_IFG&#45;&gt;TRANSMITTING</title>
<path fill="none" stroke="#000000" d="M214.5185,-206.4394C206.0884,-211.9203 198.022,-219.0549 193.2844,-228 187.044,-239.7828 186.407,-246.5773 193.2844,-258 196.9416,-264.0741 202.0054,-269.1771 207.7354,-273.4505"/>
<polygon fill="#000000" stroke="#000000" points="206.2236,-276.641 216.5209,-279.1343 210.026,-270.7637 206.2236,-276.641"/>
<text text-anchor="middle" x="216.2844" y="-239.3" font-family="Times,serif" font-size="14.00" fill="#000000">gap sent</text>
</g>
<!-- JAMMING -->
<g id="node5" class="node">
<title>JAMMING</title>
<ellipse fill="none" stroke="#000000" cx="345.2844" cy="-105" rx="52.7911" ry="18"/>
<text text-anchor="middle" x="345.2844" y="-101.3" font-family="Times,serif" font-size="14.00" fill="#000000">JAMMING</text>
</g>
<!-- SEND_IFG&#45;&gt;JAMMING -->
<g id="edge5" class="edge">
<title>SEND_IFG&#45;&gt;JAMMING</title>
<path fill="none" stroke="#000000" d="M257.0781,-174.0683C263.9729,-163.5933 273.6053,-150.5916 284.2844,-141 290.7943,-135.1531 298.398,-129.7753 305.9846,-125.0574"/>
<polygon fill="#000000" stroke="#000000" points="307.9909,-127.9372 314.8162,-119.8337 304.4272,-121.9122 307.9909,-127.9372"/>
<text text-anchor="middle" x="307.7844" y="-144.8" font-family="Times,serif" font-size="14.00" fill="#000000">collision</text>
</g>
<!-- TRANSMITTING&#45;&gt;TX_IDLE -->
<g id="edge6" class="edge">
<title>TRANSMITTING&#45;&gt;TX_IDLE</title>
<path fill="none" stroke="#000000" d="M296.2027,-310.2217C304.0033,-315.4546 311.4012,-322.0171 316.2844,-330 342.7103,-373.2002 341.6803,-434.5378 338.2076,-469.9031"/>
<polygon fill="#000000" stroke="#000000" points="334.712,-469.6688 337.0791,-479.9958 341.6687,-470.4467 334.712,-469.6688"/>
<text text-anchor="middle" x="367.2844" y="-392.3" font-family="Times,serif" font-size="14.00" fill="#000000">tx finished</text>
</g>
<!-- TRANSMITTING&#45;&gt;WAIT_IFG -->
<g id="edge8" class="edge">
<title>TRANSMITTING&#45;&gt;WAIT_IFG</title>
<path fill="none" stroke="#000000" d="M259.1149,-312.1354C256.5509,-326.5739 251.0337,-346.528 239.2844,-360 232.3867,-367.9091 223.3475,-374.2591 213.9898,-379.2888"/>
<polygon fill="#000000" stroke="#000000" points="212.4125,-376.1641 204.9799,-383.7145 215.4987,-382.4471 212.4125,-376.1641"/>
<text text-anchor="middle" x="283.2844" y="-348.8" font-family="Times,serif" font-size="14.00" fill="#000000">tx finished</text>
<text text-anchor="middle" x="283.2844" y="-333.8" font-family="Times,serif" font-size="14.00" fill="#000000">next</text>
</g>
<!-- TRANSMITTING&#45;&gt;SEND_IFG -->
<g id="edge7" class="edge">
<title>TRANSMITTING&#45;&gt;SEND_IFG</title>
<path fill="none" stroke="#000000" d="M258.6027,-275.7644C256.3311,-260.317 253.0366,-237.9149 250.4262,-220.164"/>
<polygon fill="#000000" stroke="#000000" points="253.8607,-219.462 248.9429,-210.0777 246.9352,-220.4805 253.8607,-219.462"/>
<text text-anchor="middle" x="289.7844" y="-246.8" font-family="Times,serif" font-size="14.00" fill="#000000">tx finished</text>
<text text-anchor="middle" x="289.7844" y="-231.8" font-family="Times,serif" font-size="14.00" fill="#000000">next in burst</text>
</g>
<!-- TRANSMITTING&#45;&gt;JAMMING -->
<g id="edge9" class="edge">
<title>TRANSMITTING&#45;&gt;JAMMING</title>
<path fill="none" stroke="#000000" d="M304.0118,-278.9559C313.3901,-273.7208 322.2964,-266.8625 328.2844,-258 353.4225,-220.7946 352.8873,-166.5258 349.5495,-133.6149"/>
<polygon fill="#000000" stroke="#000000" points="352.9841,-132.8524 348.3431,-123.3281 346.0318,-133.6678 352.9841,-132.8524"/>
<text text-anchor="middle" x="373.7844" y="-188.3" font-family="Times,serif" font-size="14.00" fill="#000000">collision</text>
</g>
<!-- JAMMING&#45;&gt;TX_IDLE -->
<g id="edge11" class="edge">
<title>JAMMING&#45;&gt;TX_IDLE</title>
<path fill="none" stroke="#000000" d="M371.5158,-120.8023C393.1436,-136.0443 420.2844,-161.2895 420.2844,-192 420.2844,-396 420.2844,-396 420.2844,-396 420.2844,-429.9803 392.0423,-458.5116 367.9269,-476.6801"/>
<polygon fill="#000000" stroke="#000000" points="365.6878,-473.9796 359.6221,-482.6663 369.781,-479.6581 365.6878,-473.9796"/>
<text text-anchor="middle" x="471.7844" y="-290.3" font-family="Times,serif" font-size="14.00" fill="#000000">too many attempts</text>
</g>
<!-- BACKOFF -->
<g id="node6" class="node">
<title>BACKOFF</title>
<ellipse fill="none" stroke="#000000" cx="345.2844" cy="-18" rx="51.1914" ry="18"/>
<text text-anchor="middle" x="345.2844" y="-14.3" font-family="Times,serif" font-size="14.00" fill="#000000">BACKOFF</text>
</g>
<!-- JAMMING&#45;&gt;BACKOFF -->
<g id="edge10" class="edge">
<title>JAMMING&#45;&gt;BACKOFF</title>
<path fill="none" stroke="#000000" d="M345.2844,-86.9735C345.2844,-75.1918 345.2844,-59.5607 345.2844,-46.1581"/>
<polygon fill="#000000" stroke="#000000" points="348.7845,-46.0033 345.2844,-36.0034 341.7845,-46.0034 348.7845,-46.0033"/>
<text text-anchor="middle" x="368.7844" y="-57.8" font-family="Times,serif" font-size="14.00" fill="#000000">jam sent</text>
</g>
<!-- BACKOFF&#45;&gt;TX_IDLE -->
<g id="edge13" class="edge">
<title>BACKOFF&#45;&gt;TX_IDLE</title>
<path fill="none" stroke="#000000" d="M389.4766,-27.3294C450.0062,-41.4029 551.2844,-70.1567 551.2844,-105 551.2844,-396 551.2844,-396 551.2844,-396 551.2844,-432.8468 447.5149,-467.5095 383.4933,-485.3885"/>
<polygon fill="#000000" stroke="#000000" points="382.297,-482.0875 373.5815,-488.1117 384.1515,-488.8373 382.297,-482.0875"/>
<text text-anchor="middle" x="593.7844" y="-239.3" font-family="Times,serif" font-size="14.00" fill="#000000">carrier detected</text>
</g>
<!-- BACKOFF&#45;&gt;WAIT_IFG -->
<g id="edge12" class="edge">
<title>BACKOFF&#45;&gt;WAIT_IFG</title>
<path fill="none" stroke="#000000" d="M298.6934,-25.6529C230.6981,-38.1606 112.2844,-65.5989 112.2844,-105 112.2844,-294 112.2844,-294 112.2844,-294 112.2844,-322.6245 129.1008,-351.0657 143.9649,-370.6141"/>
<polygon fill="#000000" stroke="#000000" points="141.4131,-373.0286 150.3747,-378.6801 146.8934,-368.6736 141.4131,-373.0286"/>
<text text-anchor="middle" x="138.7844" y="-188.3" font-family="Times,serif" font-size="14.00" fill="#000000">no carrier</text>
</g>
</g>
</svg>
