<?xml version="1.0" encoding="UTF-8" standalone="no"?>
<!DOCTYPE svg PUBLIC "-//W3C//DTD SVG 1.1//EN"
 "http://www.w3.org/Graphics/SVG/1.1/DTD/svg11.dtd">
<!-- Generated by graphviz version 2.40.1 (20161225.0304)
 -->
<!-- Title: g Pages: 1 -->
<svg width="288pt" height="177pt"
 viewBox="0.00 0.00 288.00 177.09" xmlns="http://www.w3.org/2000/svg" xmlns:xlink="http://www.w3.org/1999/xlink">
<g id="graph0" class="graph" transform="scale(.5286 .5286) rotate(0) translate(4 331)">
<title>g</title>
<polygon fill="#ffffff" stroke="transparent" points="-4,4 -4,-331 540.7984,-331 540.7984,4 -4,4"/>
<!-- TX_IDLE -->
<g id="node1" class="node">
<title>TX_IDLE</title>
<ellipse fill="none" stroke="#000000" cx="191.7984" cy="-309" rx="46.5926" ry="18"/>
<text text-anchor="middle" x="191.7984" y="-305.3" font-family="Times,serif" font-size="14.00" fill="#000000">TX_IDLE</text>
</g>
<!-- PAUSE -->
<g id="node2" class="node">
<title>PAUSE</title>
<ellipse fill="none" stroke="#000000" cx="52.7984" cy="-222" rx="38.1938" ry="18"/>
<text text-anchor="middle" x="52.7984" y="-218.3" font-family="Times,serif" font-size="14.00" fill="#000000">PAUSE</text>
</g>
<!-- TX_IDLE&#45;&gt;PAUSE -->
<g id="edge1" class="edge">
<title>TX_IDLE&#45;&gt;PAUSE</title>
<path fill="none" stroke="#000000" d="M144.9443,-306.6627C95.2039,-303.0846 21.3726,-294.2589 3.7984,-273 -5.4662,-261.793 4.3258,-250.0412 17.5263,-240.6467"/>
<polygon fill="#000000" stroke="#000000" points="19.5559,-243.5022 26.0461,-235.1279 15.7502,-237.6271 19.5559,-243.5022"/>
<text text-anchor="middle" x="57.2984" y="-261.8" font-family="Times,serif" font-size="14.00" fill="#000000">PAUSE frame rcvd</text>
</g>
<!-- WAIT_IFG -->
<g id="node3" class="node">
<title>WAIT_IFG</title>
<ellipse fill="none" stroke="#000000" cx="241.7984" cy="-120" rx="52.7911" ry="18"/>
<text text-anchor="middle" x="241.7984" y="-116.3" font-family="Times,serif" font-size="14.00" fill="#000000">WAIT_IFG</text>
</g>
<!-- TX_IDLE&#45;&gt;WAIT_IFG -->
<g id="edge2" class="edge">
<title>TX_IDLE&#45;&gt;WAIT_IFG</title>
<path fill="none" stroke="#000000" d="M218.5968,-294.2254C226.1707,-288.6296 233.5115,-281.5142 237.7984,-273 257.7673,-233.3399 253.3704,-180.2629 247.9093,-148.1849"/>
<polygon fill="#000000" stroke="#000000" points="251.3152,-147.355 246.0502,-138.161 244.4325,-148.6316 251.3152,-147.355"/>
<text text-anchor="middle" x="330.2984" y="-218.3" font-family="Times,serif" font-size="14.00" fill="#000000">frame rcvd from upper layer</text>
</g>
<!-- PAUSE&#45;&gt;TX_IDLE -->
<g id="edge3" class="edge">
<title>PAUSE&#45;&gt;TX_IDLE</title>
<path fill="none" stroke="#000000" d="M76.2963,-236.4196C86.875,-242.9537 99.4998,-250.8105 110.7984,-258 121.0947,-264.5517 123.5021,-266.4483 133.7984,-273 141.7287,-278.0462 150.3123,-283.4211 158.3831,-288.4366"/>
<polygon fill="#000000" stroke="#000000" points="156.5408,-291.4125 166.8845,-293.7055 160.2284,-285.4625 156.5408,-291.4125"/>
<text text-anchor="middle" x="185.7984" y="-261.8" font-family="Times,serif" font-size="14.00" fill="#000000">pause time elapsed</text>
</g>
<!-- PAUSE&#45;&gt;PAUSE -->
<g id="edge4" class="edge">
<title>PAUSE&#45;&gt;PAUSE</title>
<path fill="none" stroke="#000000" d="M87.4631,-229.8731C99.4581,-229.9564 109.145,-227.332 109.145,-222 109.145,-218.3342 104.5664,-215.9483 97.807,-214.8421"/>
<polygon fill="#000000" stroke="#000000" points="97.6807,-211.3251 87.4631,-214.1269 97.1978,-218.3084 97.6807,-211.3251"/>
<text text-anchor="middle" x="162.645" y="-218.3" font-family="Times,serif" font-size="14.00" fill="#000000">PAUSE frame rcvd</text>
</g>
<!-- PAUSE&#45;&gt;WAIT_IFG -->
<g id="edge5" class="edge">
<title>PAUSE&#45;&gt;WAIT_IFG</title>
<path fill="none" stroke="#000000" d="M69.1691,-205.6125C84.6638,-190.8846 109.1607,-169.5471 133.7984,-156 150.8953,-146.5992 170.8663,-139.0954 188.9524,-133.4234"/>
<polygon fill="#000000" stroke="#000000" points="190.2128,-136.6991 198.7761,-130.4604 188.1914,-129.9973 190.2128,-136.6991"/>
<text text-anchor="middle" x="185.7984" y="-174.8" font-family="Times,serif" font-size="14.00" fill="#000000">pause time elapsed</text>
<text text-anchor="middle" x="185.7984" y="-159.8" font-family="Times,serif" font-size="14.00" fill="#000000">queued msgs</text>
</g>
<!-- TRANSMITTING -->
<g id="node4" class="node">
<title>TRANSMITTING</title>
<ellipse fill="none" stroke="#000000" cx="199.7984" cy="-18" rx="77.1866" ry="18"/>
<text text-anchor="middle" x="199.7984" y="-14.3" font-family="Times,serif" font-size="14.00" fill="#000000">TRANSMITTING</text>
</g>
<!-- WAIT_IFG&#45;&gt;TRANSMITTING -->
<g id="edge6" class="edge">
<title>WAIT_IFG&#45;&gt;TRANSMITTING</title>
<path fill="none" stroke="#000000" d="M197.8051,-110.0193C173.1932,-103.4477 146.0349,-94.195 138.7984,-84 131.0808,-73.1272 132.187,-65.5787 138.7984,-54 141.9996,-48.3936 146.4533,-43.5727 151.5111,-39.4508"/>
<polygon fill="#000000" stroke="#000000" points="153.7248,-42.172 159.8632,-33.5366 149.6795,-36.4592 153.7248,-42.172"/>
<text text-anchor="middle" x="189.2984" y="-65.3" font-family="Times,serif" font-size="14.00" fill="#000000">96 bittime elapsed</text>
</g>
<!-- TRANSMITTING&#45;&gt;TX_IDLE -->
<g id="edge7" class="edge">
<title>TRANSMITTING&#45;&gt;TX_IDLE</title>
<path fill="none" stroke="#000000" d="M273.9362,-23.326C320.1438,-28.2419 373.7663,-37.395 389.7984,-54 484.0695,-151.64 443.0123,-198.9144 412.7984,-240 392.7639,-267.2434 303.5883,-288.4831 244.8182,-299.8416"/>
<polygon fill="#000000" stroke="#000000" points="244.1165,-296.4122 234.943,-301.713 245.4198,-303.2898 244.1165,-296.4122"/>
<text text-anchor="middle" x="492.2984" y="-174.8" font-family="Times,serif" font-size="14.00" fill="#000000">tx finished</text>
<text text-anchor="middle" x="492.2984" y="-159.8" font-family="Times,serif" font-size="14.00" fill="#000000">no queued msgs</text>
</g>
<!-- TRANSMITTING&#45;&gt;PAUSE -->
<g id="edge9" class="edge">
<title>TRANSMITTING&#45;&gt;PAUSE</title>
<path fill="none" stroke="#000000" d="M158.6587,-33.3143C129.2126,-46.6397 91.5822,-69.0427 72.7984,-102 56.6927,-130.2584 52.7266,-167.9437 52.1229,-193.4881"/>
<polygon fill="#000000" stroke="#000000" points="48.6221,-193.6027 52.0445,-203.6295 55.6218,-193.6569 48.6221,-193.6027"/>
<text text-anchor="middle" x="126.2984" y="-123.8" font-family="Times,serif" font-size="14.00" fill="#000000">tx finished</text>
<text text-anchor="middle" x="126.2984" y="-108.8" font-family="Times,serif" font-size="14.00" fill="#000000">PAUSE frame rcvd</text>
</g>
<!-- TRANSMITTING&#45;&gt;WAIT_IFG -->
<g id="edge8" class="edge">
<title>TRANSMITTING&#45;&gt;WAIT_IFG</title>
<path fill="none" stroke="#000000" d="M225.2342,-35.2735C231.0559,-40.5566 236.4973,-46.8801 239.7984,-54 245.1688,-65.5832 246.2449,-79.5798 245.7467,-91.6976"/>
<polygon fill="#000000" stroke="#000000" points="242.2504,-91.5156 244.972,-101.7549 249.2298,-92.0533 242.2504,-91.5156"/>
<text text-anchor="middle" x="316.2984" y="-72.8" font-family="Times,serif" font-size="14.00" fill="#000000">tx finished</text>
<text text-anchor="middle" x="316.2984" y="-57.8" font-family="Times,serif" font-size="14.00" fill="#000000">queued msgs, no PAUSE</text>
</g>
</g>
</svg>
