<?xml version="1.0" encoding="UTF-8" standalone="no"?>
<!DOCTYPE svg PUBLIC "-//W3C//DTD SVG 1.1//EN"
 "http://www.w3.org/Graphics/SVG/1.1/DTD/svg11.dtd">
<!-- Generated by graphviz version 2.38.0 (20140413.2041)
 -->
<!-- Title: g Pages: 1 -->
<svg width="504pt" height="122pt"
 viewBox="0.00 0.00 504.00 122.23" xmlns="http://www.w3.org/2000/svg" xmlns:xlink="http://www.w3.org/1999/xlink">
<g id="graph0" class="graph" transform="scale(0.368152 0.368152) rotate(0) translate(4 328)">
<title>g</title>
<polygon fill="white" stroke="none" points="-4,4 -4,-328 1365,-328 1365,4 -4,4"/>
<!-- IMobility -->
<g id="node1" class="node"><title>IMobility</title>
<polygon fill="none" stroke="black" points="678.5,-324 609.5,-324 609.5,-288 678.5,-288 678.5,-324"/>
<text text-anchor="middle" x="644" y="-302.3" font-family="Times,serif" font-size="14.00">IMobility</text>
</g>
<!-- MobilityBase -->
<g id="node2" class="node"><title>MobilityBase</title>
<polygon fill="none" stroke="black" points="689.5,-252 598.5,-252 598.5,-216 689.5,-216 689.5,-252"/>
<text text-anchor="middle" x="644" y="-230.3" font-family="Times,serif" font-size="14.00">MobilityBase</text>
</g>
<!-- MobilityBase&#45;&gt;IMobility -->
<g id="edge1" class="edge"><title>MobilityBase&#45;&gt;IMobility</title>
<path fill="none" stroke="black" d="M644,-252.303C644,-260.017 644,-269.288 644,-277.888"/>
<polygon fill="none" stroke="black" points="640.5,-277.896 644,-287.896 647.5,-277.896 640.5,-277.896"/>
</g>
<!-- MovingMobilityBase -->
<g id="node3" class="node"><title>MovingMobilityBase</title>
<polygon fill="none" stroke="black" points="594,-180 460,-180 460,-144 594,-144 594,-180"/>
<text text-anchor="middle" x="527" y="-158.3" font-family="Times,serif" font-size="14.00">MovingMobilityBase</text>
</g>
<!-- MovingMobilityBase&#45;&gt;MobilityBase -->
<g id="edge2" class="edge"><title>MovingMobilityBase&#45;&gt;MobilityBase</title>
<path fill="none" stroke="black" d="M555.621,-180.124C570.919,-189.276 589.943,-200.658 606.418,-210.515"/>
<polygon fill="black" stroke="black" points="604.89,-213.68 615.269,-215.81 608.484,-207.673 604.89,-213.68"/>
</g>
<!-- StationaryMobility -->
<g id="node4" class="node"><title>StationaryMobility</title>
<polygon fill="none" stroke="black" points="821,-180 701,-180 701,-144 821,-144 821,-180"/>
<text text-anchor="middle" x="761" y="-158.3" font-family="Times,serif" font-size="14.00">StationaryMobility</text>
</g>
<!-- StationaryMobility&#45;&gt;MobilityBase -->
<g id="edge3" class="edge"><title>StationaryMobility&#45;&gt;MobilityBase</title>
<path fill="none" stroke="black" d="M732.379,-180.124C717.081,-189.276 698.057,-200.658 681.582,-210.515"/>
<polygon fill="black" stroke="black" points="679.516,-207.673 672.731,-215.81 683.11,-213.68 679.516,-207.673"/>
</g>
<!-- StaticGridMobility -->
<g id="node5" class="node"><title>StaticGridMobility</title>
<polygon fill="none" stroke="black" points="911,-108 791,-108 791,-72 911,-72 911,-108"/>
<text text-anchor="middle" x="851" y="-86.3" font-family="Times,serif" font-size="14.00">StaticGridMobility</text>
</g>
<!-- StaticGridMobility&#45;&gt;StationaryMobility -->
<g id="edge4" class="edge"><title>StaticGridMobility&#45;&gt;StationaryMobility</title>
<path fill="none" stroke="black" d="M828.753,-108.303C817.418,-117.119 803.47,-127.968 791.181,-137.526"/>
<polygon fill="black" stroke="black" points="788.736,-134.993 782.991,-143.896 793.034,-140.519 788.736,-134.993"/>
</g>
<!-- CircleMobility -->
<g id="node6" class="node"><title>CircleMobility</title>
<polygon fill="none" stroke="black" points="331,-108 233,-108 233,-72 331,-72 331,-108"/>
<text text-anchor="middle" x="282" y="-86.3" font-family="Times,serif" font-size="14.00">CircleMobility</text>
</g>
<!-- CircleMobility&#45;&gt;MovingMobilityBase -->
<g id="edge5" class="edge"><title>CircleMobility&#45;&gt;MovingMobilityBase</title>
<path fill="none" stroke="black" d="M331.039,-105.407C334.07,-106.287 337.076,-107.157 340,-108 378.529,-119.106 421.58,-131.321 456.654,-141.223"/>
<polygon fill="black" stroke="black" points="455.75,-144.604 466.324,-143.951 457.65,-137.867 455.75,-144.604"/>
</g>
<!-- LinearMobility -->
<g id="node7" class="node"><title>LinearMobility</title>
<polygon fill="none" stroke="black" points="449,-108 349,-108 349,-72 449,-72 449,-108"/>
<text text-anchor="middle" x="399" y="-86.3" font-family="Times,serif" font-size="14.00">LinearMobility</text>
</g>
<!-- LinearMobility&#45;&gt;MovingMobilityBase -->
<g id="edge6" class="edge"><title>LinearMobility&#45;&gt;MovingMobilityBase</title>
<path fill="none" stroke="black" d="M430.312,-108.124C447.203,-117.361 468.247,-128.869 486.385,-138.788"/>
<polygon fill="black" stroke="black" points="485.114,-142.083 495.567,-143.81 488.473,-135.941 485.114,-142.083"/>
</g>
<!-- RectangleMobility -->
<g id="node8" class="node"><title>RectangleMobility</title>
<polygon fill="none" stroke="black" points="586.5,-108 467.5,-108 467.5,-72 586.5,-72 586.5,-108"/>
<text text-anchor="middle" x="527" y="-86.3" font-family="Times,serif" font-size="14.00">RectangleMobility</text>
</g>
<!-- RectangleMobility&#45;&gt;MovingMobilityBase -->
<g id="edge7" class="edge"><title>RectangleMobility&#45;&gt;MovingMobilityBase</title>
<path fill="none" stroke="black" d="M527,-108.303C527,-116.017 527,-125.288 527,-133.888"/>
<polygon fill="black" stroke="black" points="523.5,-133.896 527,-143.896 530.5,-133.896 523.5,-133.896"/>
</g>
<!-- LineSegmentsMobilityBase -->
<g id="node9" class="node"><title>LineSegmentsMobilityBase</title>
<polygon fill="none" stroke="black" points="773.5,-108 604.5,-108 604.5,-72 773.5,-72 773.5,-108"/>
<text text-anchor="middle" x="689" y="-86.3" font-family="Times,serif" font-size="14.00">LineSegmentsMobilityBase</text>
</g>
<!-- LineSegmentsMobilityBase&#45;&gt;MovingMobilityBase -->
<g id="edge8" class="edge"><title>LineSegmentsMobilityBase&#45;&gt;MovingMobilityBase</title>
<path fill="none" stroke="black" d="M649.37,-108.124C627.224,-117.693 599.437,-129.7 575.942,-139.852"/>
<polygon fill="black" stroke="black" points="574.292,-136.752 566.501,-143.932 577.069,-143.178 574.292,-136.752"/>
</g>
<!-- TractorMobility -->
<g id="node10" class="node"><title>TractorMobility</title>
<polygon fill="none" stroke="black" points="104,-36 0,-36 0,-0 104,-0 104,-36"/>
<text text-anchor="middle" x="52" y="-14.3" font-family="Times,serif" font-size="14.00">TractorMobility</text>
</g>
<!-- TractorMobility&#45;&gt;LineSegmentsMobilityBase -->
<g id="edge9" class="edge"><title>TractorMobility&#45;&gt;LineSegmentsMobilityBase</title>
<path fill="none" stroke="black" d="M104.088,-34.2448C107.09,-34.8959 110.076,-35.4885 113,-36 321.403,-72.4545 380.134,-45.6858 594.275,-72.0033"/>
<polygon fill="black" stroke="black" points="593.903,-75.4839 604.26,-73.2548 594.773,-68.5382 593.903,-75.4839"/>
</g>
<!-- RandomWPMobility -->
<g id="node11" class="node"><title>RandomWPMobility</title>
<polygon fill="none" stroke="black" points="254,-36 122,-36 122,-0 254,-0 254,-36"/>
<text text-anchor="middle" x="188" y="-14.3" font-family="Times,serif" font-size="14.00">RandomWPMobility</text>
</g>
<!-- RandomWPMobility&#45;&gt;LineSegmentsMobilityBase -->
<g id="edge10" class="edge"><title>RandomWPMobility&#45;&gt;LineSegmentsMobilityBase</title>
<path fill="none" stroke="black" d="M254.172,-34.4323C257.15,-34.9901 260.103,-35.5162 263,-36 406.248,-59.92 446.391,-51.1795 594.576,-72.0099"/>
<polygon fill="black" stroke="black" points="594.101,-75.4775 604.495,-73.4254 595.09,-68.5477 594.101,-75.4775"/>
</g>
<!-- GaussMarkovMobilityBase -->
<g id="node12" class="node"><title>GaussMarkovMobilityBase</title>
<polygon fill="none" stroke="black" points="439.5,-36 272.5,-36 272.5,-0 439.5,-0 439.5,-36"/>
<text text-anchor="middle" x="356" y="-14.3" font-family="Times,serif" font-size="14.00">GaussMarkovMobilityBase</text>
</g>
<!-- GaussMarkovMobilityBase&#45;&gt;LineSegmentsMobilityBase -->
<g id="edge11" class="edge"><title>GaussMarkovMobilityBase&#45;&gt;LineSegmentsMobilityBase</title>
<path fill="none" stroke="black" d="M437.035,-36.0344C485.676,-46.2592 547.668,-59.2905 597.989,-69.8686"/>
<polygon fill="black" stroke="black" points="597.384,-73.3179 607.89,-71.9499 598.824,-66.4676 597.384,-73.3179"/>
</g>
<!-- MassMobility -->
<g id="node13" class="node"><title>MassMobility</title>
<polygon fill="none" stroke="black" points="552,-36 458,-36 458,-0 552,-0 552,-36"/>
<text text-anchor="middle" x="505" y="-14.3" font-family="Times,serif" font-size="14.00">MassMobility</text>
</g>
<!-- MassMobility&#45;&gt;LineSegmentsMobilityBase -->
<g id="edge12" class="edge"><title>MassMobility&#45;&gt;LineSegmentsMobilityBase</title>
<path fill="none" stroke="black" d="M550.011,-36.1239C575.501,-45.8209 607.568,-58.0205 634.476,-68.2573"/>
<polygon fill="black" stroke="black" points="633.544,-71.6472 644.135,-71.9317 636.033,-65.1046 633.544,-71.6472"/>
</g>
<!-- ChiangMobility -->
<g id="node14" class="node"><title>ChiangMobility</title>
<polygon fill="none" stroke="black" points="674,-36 570,-36 570,-0 674,-0 674,-36"/>
<text text-anchor="middle" x="622" y="-14.3" font-family="Times,serif" font-size="14.00">ChiangMobility</text>
</g>
<!-- ChiangMobility&#45;&gt;LineSegmentsMobilityBase -->
<g id="edge13" class="edge"><title>ChiangMobility&#45;&gt;LineSegmentsMobilityBase</title>
<path fill="none" stroke="black" d="M638.562,-36.3034C646.675,-44.7802 656.588,-55.1364 665.471,-64.4174"/>
<polygon fill="black" stroke="black" points="663.186,-67.0916 672.629,-71.8957 668.243,-62.2514 663.186,-67.0916"/>
</g>
<!-- ConstSpeedMobility -->
<g id="node15" class="node"><title>ConstSpeedMobility</title>
<polygon fill="none" stroke="black" points="821.5,-36 692.5,-36 692.5,-0 821.5,-0 821.5,-36"/>
<text text-anchor="middle" x="757" y="-14.3" font-family="Times,serif" font-size="14.00">ConstSpeedMobility</text>
</g>
<!-- ConstSpeedMobility&#45;&gt;LineSegmentsMobilityBase -->
<g id="edge14" class="edge"><title>ConstSpeedMobility&#45;&gt;LineSegmentsMobilityBase</title>
<path fill="none" stroke="black" d="M740.191,-36.3034C731.874,-44.865 721.695,-55.3438 712.61,-64.6955"/>
<polygon fill="black" stroke="black" points="710.073,-62.2841 705.616,-71.8957 715.094,-67.1616 710.073,-62.2841"/>
</g>
<!-- ANSimMobility -->
<g id="node16" class="node"><title>ANSimMobility</title>
<polygon fill="none" stroke="black" points="946.5,-36 839.5,-36 839.5,-0 946.5,-0 946.5,-36"/>
<text text-anchor="middle" x="893" y="-14.3" font-family="Times,serif" font-size="14.00">ANSimMobility</text>
</g>
<!-- ANSimMobility&#45;&gt;LineSegmentsMobilityBase -->
<g id="edge15" class="edge"><title>ANSimMobility&#45;&gt;LineSegmentsMobilityBase</title>
<path fill="none" stroke="black" d="M843.357,-36.0344C814.73,-45.8575 778.553,-58.2709 748.42,-68.6109"/>
<polygon fill="black" stroke="black" points="747.188,-65.333 738.866,-71.8892 749.46,-71.954 747.188,-65.333"/>
</g>
<!-- BonnMotionMobility -->
<g id="node17" class="node"><title>BonnMotionMobility</title>
<polygon fill="none" stroke="black" points="1099,-36 965,-36 965,-0 1099,-0 1099,-36"/>
<text text-anchor="middle" x="1032" y="-14.3" font-family="Times,serif" font-size="14.00">BonnMotionMobility</text>
</g>
<!-- BonnMotionMobility&#45;&gt;LineSegmentsMobilityBase -->
<g id="edge16" class="edge"><title>BonnMotionMobility&#45;&gt;LineSegmentsMobilityBase</title>
<path fill="none" stroke="black" d="M964.826,-33.9161C961.505,-34.6268 958.215,-35.3248 955,-36 898.188,-47.93 834.406,-60.6608 783.543,-70.6546"/>
<polygon fill="black" stroke="black" points="782.687,-67.2557 773.548,-72.6158 784.035,-74.1247 782.687,-67.2557"/>
</g>
<!-- Ns2MotionMobility -->
<g id="node18" class="node"><title>Ns2MotionMobility</title>
<polygon fill="none" stroke="black" points="1244.5,-36 1117.5,-36 1117.5,-0 1244.5,-0 1244.5,-36"/>
<text text-anchor="middle" x="1181" y="-14.3" font-family="Times,serif" font-size="14.00">Ns2MotionMobility</text>
</g>
<!-- Ns2MotionMobility&#45;&gt;LineSegmentsMobilityBase -->
<g id="edge17" class="edge"><title>Ns2MotionMobility&#45;&gt;LineSegmentsMobilityBase</title>
<path fill="none" stroke="black" d="M1117.39,-34.2826C1114.22,-34.8963 1111.08,-35.4735 1108,-36 967.544,-60.0222 927.996,-51.299 783.719,-71.811"/>
<polygon fill="black" stroke="black" points="783.002,-68.3781 773.605,-73.272 784.003,-75.3062 783.002,-68.3781"/>
</g>
<!-- TurtleMobility -->
<g id="node19" class="node"><title>TurtleMobility</title>
<polygon fill="none" stroke="black" points="1361,-36 1263,-36 1263,-0 1361,-0 1361,-36"/>
<text text-anchor="middle" x="1312" y="-14.3" font-family="Times,serif" font-size="14.00">TurtleMobility</text>
</g>
<!-- TurtleMobility&#45;&gt;LineSegmentsMobilityBase -->
<g id="edge18" class="edge"><title>TurtleMobility&#45;&gt;LineSegmentsMobilityBase</title>
<path fill="none" stroke="black" d="M1262.81,-34.1784C1259.84,-34.8565 1256.89,-35.4722 1254,-36 1050.27,-73.2035 992.452,-45.9297 783.647,-71.8735"/>
<polygon fill="black" stroke="black" points="783.068,-68.4188 773.588,-73.1496 783.949,-75.3631 783.068,-68.4188"/>
</g>
</g>
</svg>
