<?xml version="1.0" encoding="UTF-8" standalone="no"?>
<!DOCTYPE svg PUBLIC "-//W3C//DTD SVG 1.1//EN"
 "http://www.w3.org/Graphics/SVG/1.1/DTD/svg11.dtd">
<!-- Generated by graphviz version 2.40.1 (20161225.0304)
 -->
<!-- Title: g Pages: 1 -->
<svg width="288pt" height="141pt"
 viewBox="0.00 0.00 288.00 140.69" xmlns="http://www.w3.org/2000/svg" xmlns:xlink="http://www.w3.org/1999/xlink">
<g id="graph0" class="graph" transform="scale(.42 .42) rotate(0) translate(4 331)">
<title>g</title>
<polygon fill="#ffffff" stroke="transparent" points="-4,4 -4,-331 681.7603,-331 681.7603,4 -4,4"/>
<!-- TX_IDLE -->
<g id="node1" class="node">
<title>TX_IDLE</title>
<ellipse fill="none" stroke="#000000" cx="238.7603" cy="-309" rx="53.0913" ry="18"/>
<text text-anchor="middle" x="238.7603" y="-305.3" font-family="Times,serif" font-size="14.00" fill="#000000">TX_IDLE</text>
</g>
<!-- PAUSE -->
<g id="node2" class="node">
<title>PAUSE</title>
<ellipse fill="none" stroke="#000000" cx="82.7603" cy="-222" rx="44.393" ry="18"/>
<text text-anchor="middle" x="82.7603" y="-218.3" font-family="Times,serif" font-size="14.00" fill="#000000">PAUSE</text>
</g>
<!-- TX_IDLE&#45;&gt;PAUSE -->
<g id="edge1" class="edge">
<title>TX_IDLE&#45;&gt;PAUSE</title>
<path fill="none" stroke="#000000" d="M186.8222,-304.5676C121.5181,-298.4595 16.4692,-286.6481 4.7603,-273 -9.1438,-256.7933 12.0203,-243.742 35.7893,-234.9001"/>
<polygon fill="#000000" stroke="#000000" points="37.0106,-238.1812 45.3167,-231.604 34.7219,-231.5659 37.0106,-238.1812"/>
<text text-anchor="middle" x="72.2603" y="-261.8" font-family="Times,serif" font-size="14.00" fill="#000000">PAUSE frame rcvd</text>
</g>
<!-- WAIT_IFG -->
<g id="node3" class="node">
<title>WAIT_IFG</title>
<ellipse fill="none" stroke="#000000" cx="305.7603" cy="-120" rx="59.5901" ry="18"/>
<text text-anchor="middle" x="305.7603" y="-116.3" font-family="Times,serif" font-size="14.00" fill="#000000">WAIT_IFG</text>
</g>
<!-- TX_IDLE&#45;&gt;WAIT_IFG -->
<g id="edge2" class="edge">
<title>TX_IDLE&#45;&gt;WAIT_IFG</title>
<path fill="none" stroke="#000000" d="M275.8763,-295.8532C286.0034,-290.394 295.8127,-282.947 301.7603,-273 324.6701,-234.6845 319.2322,-180.7627 312.7873,-148.2215"/>
<polygon fill="#000000" stroke="#000000" points="316.1262,-147.0998 310.6026,-138.0588 309.2826,-148.5711 316.1262,-147.0998"/>
<text text-anchor="middle" x="420.2603" y="-218.3" font-family="Times,serif" font-size="14.00" fill="#000000">frame rcvd from upper layer</text>
</g>
<!-- PAUSE&#45;&gt;TX_IDLE -->
<g id="edge3" class="edge">
<title>PAUSE&#45;&gt;TX_IDLE</title>
<path fill="none" stroke="#000000" d="M106.939,-237.1619C117.0966,-243.5597 129.0238,-251.109 139.7603,-258 150.0308,-264.5919 152.1101,-267.0408 162.7603,-273 173.61,-279.0709 185.651,-285.0863 196.8902,-290.4114"/>
<polygon fill="#000000" stroke="#000000" points="195.5569,-293.6515 206.0989,-294.7083 198.5168,-287.3081 195.5569,-293.6515"/>
<text text-anchor="middle" x="232.2603" y="-261.8" font-family="Times,serif" font-size="14.00" fill="#000000">pause time elapsed</text>
</g>
<!-- PAUSE&#45;&gt;PAUSE -->
<g id="edge4" class="edge">
<title>PAUSE&#45;&gt;PAUSE</title>
<path fill="none" stroke="#000000" d="M122.5395,-229.8707C135.0705,-229.7505 144.9563,-227.127 144.9563,-222 144.9563,-218.3951 140.0689,-216.0279 132.8111,-214.8983"/>
<polygon fill="#000000" stroke="#000000" points="132.7729,-211.3857 122.5395,-214.1293 132.2503,-218.3662 132.7729,-211.3857"/>
<text text-anchor="middle" x="212.4563" y="-218.3" font-family="Times,serif" font-size="14.00" fill="#000000">PAUSE frame rcvd</text>
</g>
<!-- PAUSE&#45;&gt;WAIT_IFG -->
<g id="edge5" class="edge">
<title>PAUSE&#45;&gt;WAIT_IFG</title>
<path fill="none" stroke="#000000" d="M98.6621,-205.1679C113.7814,-190.1332 137.8555,-168.5948 162.7603,-156 170.6695,-152.0002 211.8659,-141.7935 248.0224,-133.2655"/>
<polygon fill="#000000" stroke="#000000" points="249.119,-136.6033 258.0549,-130.9112 247.5197,-129.7884 249.119,-136.6033"/>
<text text-anchor="middle" x="232.2603" y="-174.8" font-family="Times,serif" font-size="14.00" fill="#000000">pause time elapsed</text>
<text text-anchor="middle" x="232.2603" y="-159.8" font-family="Times,serif" font-size="14.00" fill="#000000">queued msgs</text>
</g>
<!-- TRANSMITTING -->
<g id="node4" class="node">
<title>TRANSMITTING</title>
<ellipse fill="none" stroke="#000000" cx="251.7603" cy="-18" rx="90.9839" ry="18"/>
<text text-anchor="middle" x="251.7603" y="-14.3" font-family="Times,serif" font-size="14.00" fill="#000000">TRANSMITTING</text>
</g>
<!-- WAIT_IFG&#45;&gt;TRANSMITTING -->
<g id="edge6" class="edge">
<title>WAIT_IFG&#45;&gt;TRANSMITTING</title>
<path fill="none" stroke="#000000" d="M259.0866,-108.5862C222.5511,-99.4293 177.4591,-87.5406 174.7603,-84 166.6773,-73.3961 167.6019,-65.2488 174.7603,-54 178.7909,-47.6661 184.2605,-42.428 190.4381,-38.1001"/>
<polygon fill="#000000" stroke="#000000" points="192.5111,-40.9356 199.232,-32.7454 188.8705,-34.9568 192.5111,-40.9356"/>
<text text-anchor="middle" x="241.7603" y="-65.3" font-family="Times,serif" font-size="14.00" fill="#000000">96 bittime elapsed</text>
</g>
<!-- TRANSMITTING&#45;&gt;TX_IDLE -->
<g id="edge7" class="edge">
<title>TRANSMITTING&#45;&gt;TX_IDLE</title>
<path fill="none" stroke="#000000" d="M334.6455,-25.5326C400.6789,-32.3016 483.9686,-42.8655 495.7603,-54 595.974,-148.6287 560.7896,-196.8548 526.7603,-240 499.1069,-275.0612 376.388,-294.3098 300.3427,-303.0624"/>
<polygon fill="#000000" stroke="#000000" points="299.9424,-299.5852 290.395,-304.1783 300.7228,-306.5416 299.9424,-299.5852"/>
<text text-anchor="middle" x="619.2603" y="-174.8" font-family="Times,serif" font-size="14.00" fill="#000000">tx finished</text>
<text text-anchor="middle" x="619.2603" y="-159.8" font-family="Times,serif" font-size="14.00" fill="#000000">no queued msgs</text>
</g>
<!-- TRANSMITTING&#45;&gt;PAUSE -->
<g id="edge9" class="edge">
<title>TRANSMITTING&#45;&gt;PAUSE</title>
<path fill="none" stroke="#000000" d="M198.7065,-32.7355C164.6376,-45.2219 122.9363,-66.8457 101.7603,-102 84.9041,-129.9829 81.4892,-168.0277 81.4216,-193.7182"/>
<polygon fill="#000000" stroke="#000000" points="77.9246,-193.958 81.5681,-203.9066 84.9238,-193.8573 77.9246,-193.958"/>
<text text-anchor="middle" x="169.2603" y="-123.8" font-family="Times,serif" font-size="14.00" fill="#000000">tx finished</text>
<text text-anchor="middle" x="169.2603" y="-108.8" font-family="Times,serif" font-size="14.00" fill="#000000">PAUSE frame rcvd</text>
</g>
<!-- TRANSMITTING&#45;&gt;WAIT_IFG -->
<g id="edge8" class="edge">
<title>TRANSMITTING&#45;&gt;WAIT_IFG</title>
<path fill="none" stroke="#000000" d="M289.7186,-34.4142C297.3405,-39.5395 304.3535,-46.0047 308.7603,-54 315.0756,-65.458 315.1676,-79.808 313.3284,-92.1982"/>
<polygon fill="#000000" stroke="#000000" points="309.8879,-91.5556 311.4234,-102.0386 316.7603,-92.8861 309.8879,-91.5556"/>
<text text-anchor="middle" x="403.2603" y="-72.8" font-family="Times,serif" font-size="14.00" fill="#000000">tx finished</text>
<text text-anchor="middle" x="403.2603" y="-57.8" font-family="Times,serif" font-size="14.00" fill="#000000">queued msgs, no PAUSE</text>
</g>
</g>
</svg>
