<?xml version="1.0" encoding="UTF-8" standalone="no"?>
<!DOCTYPE svg PUBLIC "-//W3C//DTD SVG 1.1//EN"
 "http://www.w3.org/Graphics/SVG/1.1/DTD/svg11.dtd">
<!-- Generated by graphviz version 2.40.1 (20161225.0304)
 -->
<!-- Title: g Pages: 1 -->
<svg width="379pt" height="260pt"
 viewBox="0.00 0.00 379.00 260.00" xmlns="http://www.w3.org/2000/svg" xmlns:xlink="http://www.w3.org/1999/xlink">
<g id="graph0" class="graph" transform="scale(1 1) rotate(0) translate(4 256)">
<title>g</title>
<polygon fill="#ffffff" stroke="transparent" points="-4,4 -4,-256 375,-256 375,4 -4,4"/>
<!-- TCPAlgorithm -->
<g id="node1" class="node">
<title>TCPAlgorithm</title>
<polygon fill="none" stroke="#000000" points="164.5,-252 66.5,-252 66.5,-216 164.5,-216 164.5,-252"/>
<text text-anchor="middle" x="115.5" y="-230.3" font-family="Times,serif" font-size="14.00" fill="#000000">TCPAlgorithm</text>
</g>
<!-- DumbTCP -->
<g id="node2" class="node">
<title>DumbTCP</title>
<polygon fill="none" stroke="#000000" points="103.5,-180 27.5,-180 27.5,-144 103.5,-144 103.5,-180"/>
<text text-anchor="middle" x="65.5" y="-158.3" font-family="Times,serif" font-size="14.00" fill="#000000">DumbTCP</text>
</g>
<!-- DumbTCP&#45;&gt;TCPAlgorithm -->
<g id="edge1" class="edge">
<title>DumbTCP&#45;&gt;TCPAlgorithm</title>
<path fill="none" stroke="#000000" d="M78.1171,-180.1686C83.8172,-188.3768 90.6663,-198.2394 96.9359,-207.2677"/>
<polygon fill="none" stroke="#000000" points="94.1342,-209.3694 102.713,-215.5867 99.8838,-205.3766 94.1342,-209.3694"/>
</g>
<!-- TCPBaseAlg -->
<g id="node3" class="node">
<title>TCPBaseAlg</title>
<polygon fill="none" stroke="#000000" points="209.5,-180 121.5,-180 121.5,-144 209.5,-144 209.5,-180"/>
<text text-anchor="middle" x="165.5" y="-158.3" font-family="Times,serif" font-size="14.00" fill="#000000">TCPBaseAlg</text>
</g>
<!-- TCPBaseAlg&#45;&gt;TCPAlgorithm -->
<g id="edge2" class="edge">
<title>TCPBaseAlg&#45;&gt;TCPAlgorithm</title>
<path fill="none" stroke="#000000" d="M152.8829,-180.1686C147.1828,-188.3768 140.3337,-198.2394 134.0641,-207.2677"/>
<polygon fill="none" stroke="#000000" points="131.1162,-205.3766 128.287,-215.5867 136.8658,-209.3694 131.1162,-205.3766"/>
</g>
<!-- TCPNoCongestionControl -->
<g id="node4" class="node">
<title>TCPNoCongestionControl</title>
<polygon fill="none" stroke="#000000" points="161,-108 0,-108 0,-72 161,-72 161,-108"/>
<text text-anchor="middle" x="80.5" y="-86.3" font-family="Times,serif" font-size="14.00" fill="#000000">TCPNoCongestionControl</text>
</g>
<!-- TCPNoCongestionControl&#45;&gt;TCPBaseAlg -->
<g id="edge3" class="edge">
<title>TCPNoCongestionControl&#45;&gt;TCPBaseAlg</title>
<path fill="none" stroke="#000000" d="M101.9491,-108.1686C112.3178,-116.9515 124.9229,-127.6288 136.1646,-137.1511"/>
<polygon fill="#000000" stroke="#000000" points="134.1651,-140.0444 144.0578,-143.8372 138.6895,-134.703 134.1651,-140.0444"/>
</g>
<!-- TCPTahoeRenoFamily -->
<g id="node5" class="node">
<title>TCPTahoeRenoFamily</title>
<polygon fill="none" stroke="#000000" points="322,-108 179,-108 179,-72 322,-72 322,-108"/>
<text text-anchor="middle" x="250.5" y="-86.3" font-family="Times,serif" font-size="14.00" fill="#000000">TCPTahoeRenoFamily</text>
</g>
<!-- TCPTahoeRenoFamily&#45;&gt;TCPBaseAlg -->
<g id="edge4" class="edge">
<title>TCPTahoeRenoFamily&#45;&gt;TCPBaseAlg</title>
<path fill="none" stroke="#000000" d="M229.0509,-108.1686C218.6822,-116.9515 206.0771,-127.6288 194.8354,-137.1511"/>
<polygon fill="#000000" stroke="#000000" points="192.3105,-134.703 186.9422,-143.8372 196.8349,-140.0444 192.3105,-134.703"/>
</g>
<!-- TCPTahoe -->
<g id="node6" class="node">
<title>TCPTahoe</title>
<polygon fill="none" stroke="#000000" points="197,-36 122,-36 122,0 197,0 197,-36"/>
<text text-anchor="middle" x="159.5" y="-14.3" font-family="Times,serif" font-size="14.00" fill="#000000">TCPTahoe</text>
</g>
<!-- TCPTahoe&#45;&gt;TCPTahoeRenoFamily -->
<g id="edge5" class="edge">
<title>TCPTahoe&#45;&gt;TCPTahoeRenoFamily</title>
<path fill="none" stroke="#000000" d="M182.4631,-36.1686C193.6715,-45.0368 207.3209,-55.8363 219.4439,-65.4282"/>
<polygon fill="#000000" stroke="#000000" points="217.5303,-68.3771 227.5442,-71.8372 221.8737,-62.8875 217.5303,-68.3771"/>
</g>
<!-- TCPReno -->
<g id="node7" class="node">
<title>TCPReno</title>
<polygon fill="none" stroke="#000000" points="285.5,-36 215.5,-36 215.5,0 285.5,0 285.5,-36"/>
<text text-anchor="middle" x="250.5" y="-14.3" font-family="Times,serif" font-size="14.00" fill="#000000">TCPReno</text>
</g>
<!-- TCPReno&#45;&gt;TCPTahoeRenoFamily -->
<g id="edge6" class="edge">
<title>TCPReno&#45;&gt;TCPTahoeRenoFamily</title>
<path fill="none" stroke="#000000" d="M250.5,-36.1686C250.5,-43.869 250.5,-53.0257 250.5,-61.5834"/>
<polygon fill="#000000" stroke="#000000" points="247.0001,-61.5867 250.5,-71.5867 254.0001,-61.5868 247.0001,-61.5867"/>
</g>
<!-- TCPNew -->
<g id="node8" class="node">
<title>TCPNew</title>
<polygon fill="none" stroke="#000000" points="371,-36 304,-36 304,0 371,0 371,-36"/>
<text text-anchor="middle" x="337.5" y="-14.3" font-family="Times,serif" font-size="14.00" fill="#000000">TCPNew</text>
</g>
<!-- TCPNew&#45;&gt;TCPTahoeRenoFamily -->
<g id="edge7" class="edge">
<title>TCPNew&#45;&gt;TCPTahoeRenoFamily</title>
<path fill="none" stroke="#000000" d="M315.5462,-36.1686C304.8305,-45.0368 291.7811,-55.8363 280.191,-65.4282"/>
<polygon fill="#000000" stroke="#000000" points="277.9192,-62.7651 272.4467,-71.8372 282.3822,-68.1578 277.9192,-62.7651"/>
</g>
</g>
</svg>
