<?xml version="1.0" encoding="UTF-8" standalone="no"?>
<!DOCTYPE svg PUBLIC "-//W3C//DTD SVG 1.1//EN"
 "http://www.w3.org/Graphics/SVG/1.1/DTD/svg11.dtd">
<!-- Generated by graphviz version 2.38.0 (20140413.2041)
 -->
<!-- Title: g Pages: 1 -->
<svg width="288pt" height="177pt"
 viewBox="0.00 0.00 288.00 176.79" xmlns="http://www.w3.org/2000/svg" xmlns:xlink="http://www.w3.org/1999/xlink">
<g id="graph0" class="graph" transform="scale(0.527731 0.527731) rotate(0) translate(4 331)">
<title>g</title>
<polygon fill="white" stroke="none" points="-4,4 -4,-331 541.733,-331 541.733,4 -4,4"/>
<!-- TX_IDLE -->
<g id="node1" class="node"><title>TX_IDLE</title>
<ellipse fill="none" stroke="black" cx="191.733" cy="-309" rx="46.5926" ry="18"/>
<text text-anchor="middle" x="191.733" y="-305.3" font-family="Times,serif" font-size="14.00">TX_IDLE</text>
</g>
<!-- PAUSE -->
<g id="node2" class="node"><title>PAUSE</title>
<ellipse fill="none" stroke="black" cx="52.7327" cy="-222" rx="38.1938" ry="18"/>
<text text-anchor="middle" x="52.7327" y="-218.3" font-family="Times,serif" font-size="14.00">PAUSE</text>
</g>
<!-- TX_IDLE&#45;&gt;PAUSE -->
<g id="edge1" class="edge"><title>TX_IDLE&#45;&gt;PAUSE</title>
<path fill="none" stroke="black" d="M145.341,-305.952C95.6097,-302.669 21.3974,-294.257 3.73267,-273 -5.595,-261.776 4.60834,-250.08 18.0727,-240.825"/>
<polygon fill="black" stroke="black" points="20.1132,-243.677 26.732,-235.404 16.3988,-237.744 20.1132,-243.677"/>
<text text-anchor="middle" x="57.2327" y="-261.8" font-family="Times,serif" font-size="14.00">PAUSE frame rcvd</text>
</g>
<!-- WAIT_IFG -->
<g id="node3" class="node"><title>WAIT_IFG</title>
<ellipse fill="none" stroke="black" cx="241.733" cy="-120" rx="52.7911" ry="18"/>
<text text-anchor="middle" x="241.733" y="-116.3" font-family="Times,serif" font-size="14.00">WAIT_IFG</text>
</g>
<!-- TX_IDLE&#45;&gt;WAIT_IFG -->
<g id="edge2" class="edge"><title>TX_IDLE&#45;&gt;WAIT_IFG</title>
<path fill="none" stroke="black" d="M218.515,-293.778C226.088,-288.345 233.433,-281.396 237.733,-273 258.059,-233.315 253.304,-179.828 247.717,-148.028"/>
<polygon fill="black" stroke="black" points="251.139,-147.292 245.825,-138.127 244.264,-148.606 251.139,-147.292"/>
<text text-anchor="middle" x="331.233" y="-218.3" font-family="Times,serif" font-size="14.00">frame rcvd from upper layer</text>
</g>
<!-- PAUSE&#45;&gt;TX_IDLE -->
<g id="edge3" class="edge"><title>PAUSE&#45;&gt;TX_IDLE</title>
<path fill="none" stroke="black" d="M75.7096,-236.614C86.4089,-243.018 99.2767,-250.811 110.733,-258 121.07,-264.487 123.396,-266.513 133.733,-273 141.78,-278.05 150.524,-283.398 158.723,-288.353"/>
<polygon fill="black" stroke="black" points="156.975,-291.386 167.348,-293.543 160.584,-285.388 156.975,-291.386"/>
<text text-anchor="middle" x="185.733" y="-261.8" font-family="Times,serif" font-size="14.00">pause time elapsed</text>
</g>
<!-- PAUSE&#45;&gt;PAUSE -->
<g id="edge4" class="edge"><title>PAUSE&#45;&gt;PAUSE</title>
<path fill="none" stroke="black" d="M87.3973,-229.873C99.3924,-229.956 109.079,-227.332 109.079,-222 109.079,-218.334 104.501,-215.948 97.7413,-214.842"/>
<polygon fill="black" stroke="black" points="97.615,-211.325 87.3973,-214.127 97.1321,-218.308 97.615,-211.325"/>
<text text-anchor="middle" x="162.579" y="-218.3" font-family="Times,serif" font-size="14.00">PAUSE frame rcvd</text>
</g>
<!-- PAUSE&#45;&gt;WAIT_IFG -->
<g id="edge5" class="edge"><title>PAUSE&#45;&gt;WAIT_IFG</title>
<path fill="none" stroke="black" d="M68.5274,-205.387C83.9992,-190.844 108.82,-169.443 133.733,-156 151.156,-146.598 171.534,-139.186 189.865,-133.65"/>
<polygon fill="black" stroke="black" points="190.894,-136.995 199.521,-130.846 188.942,-130.273 190.894,-136.995"/>
<text text-anchor="middle" x="185.733" y="-174.8" font-family="Times,serif" font-size="14.00">pause time elapsed</text>
<text text-anchor="middle" x="185.733" y="-159.8" font-family="Times,serif" font-size="14.00">queued msgs</text>
</g>
<!-- TRANSMITTING -->
<g id="node4" class="node"><title>TRANSMITTING</title>
<ellipse fill="none" stroke="black" cx="199.733" cy="-18" rx="77.1866" ry="18"/>
<text text-anchor="middle" x="199.733" y="-14.3" font-family="Times,serif" font-size="14.00">TRANSMITTING</text>
</g>
<!-- WAIT_IFG&#45;&gt;TRANSMITTING -->
<g id="edge6" class="edge"><title>WAIT_IFG&#45;&gt;TRANSMITTING</title>
<path fill="none" stroke="black" d="M198.593,-109.667C173.769,-103.326 146.074,-94.2483 138.733,-84 130.968,-73.1608 132.05,-65.538 138.733,-54 142.025,-48.3143 146.629,-43.4725 151.848,-39.3709"/>
<polygon fill="black" stroke="black" points="154.151,-42.0369 160.453,-33.52 150.216,-36.2482 154.151,-42.0369"/>
<text text-anchor="middle" x="189.233" y="-65.3" font-family="Times,serif" font-size="14.00">96 bittime elapsed</text>
</g>
<!-- TRANSMITTING&#45;&gt;TX_IDLE -->
<g id="edge7" class="edge"><title>TRANSMITTING&#45;&gt;TX_IDLE</title>
<path fill="none" stroke="black" d="M273.064,-23.8754C319.417,-28.5346 373.532,-37.4139 389.733,-54 484.409,-150.929 444.352,-198.597 413.733,-240 393.454,-267.42 302.992,-288.301 243.986,-299.307"/>
<polygon fill="black" stroke="black" points="243.289,-295.877 234.081,-301.118 244.548,-302.762 243.289,-295.877"/>
<text text-anchor="middle" x="493.233" y="-174.8" font-family="Times,serif" font-size="14.00">tx finished</text>
<text text-anchor="middle" x="493.233" y="-159.8" font-family="Times,serif" font-size="14.00">no queued msgs</text>
</g>
<!-- TRANSMITTING&#45;&gt;PAUSE -->
<g id="edge9" class="edge"><title>TRANSMITTING&#45;&gt;PAUSE</title>
<path fill="none" stroke="black" d="M159.794,-33.439C130.16,-46.4556 91.7322,-68.7168 72.7327,-102 56.5567,-130.337 52.6606,-168.241 52.0898,-193.582"/>
<polygon fill="black" stroke="black" points="48.5898,-193.586 52.0227,-203.609 55.5897,-193.633 48.5898,-193.586"/>
<text text-anchor="middle" x="126.233" y="-123.8" font-family="Times,serif" font-size="14.00">tx finished</text>
<text text-anchor="middle" x="126.233" y="-108.8" font-family="Times,serif" font-size="14.00">PAUSE frame rcvd</text>
</g>
<!-- TRANSMITTING&#45;&gt;WAIT_IFG -->
<g id="edge8" class="edge"><title>TRANSMITTING&#45;&gt;WAIT_IFG</title>
<path fill="none" stroke="black" d="M224.738,-35.3118C230.716,-40.5205 236.343,-46.8248 239.733,-54 245.216,-65.6062 246.223,-79.7241 245.649,-91.8335"/>
<polygon fill="black" stroke="black" points="242.157,-91.587 244.809,-101.844 249.133,-92.1719 242.157,-91.587"/>
<text text-anchor="middle" x="316.233" y="-72.8" font-family="Times,serif" font-size="14.00">tx finished</text>
<text text-anchor="middle" x="316.233" y="-57.8" font-family="Times,serif" font-size="14.00">queued msgs, no PAUSE</text>
</g>
</g>
</svg>
