<?xml version="1.0" encoding="UTF-8" standalone="no"?>
<!DOCTYPE svg PUBLIC "-//W3C//DTD SVG 1.1//EN"
 "http://www.w3.org/Graphics/SVG/1.1/DTD/svg11.dtd">
<!-- Generated by graphviz version 2.38.0 (20140413.2041)
 -->
<!-- Title: g Pages: 1 -->
<svg width="379pt" height="260pt"
 viewBox="0.00 0.00 379.00 260.00" xmlns="http://www.w3.org/2000/svg" xmlns:xlink="http://www.w3.org/1999/xlink">
<g id="graph0" class="graph" transform="scale(1 1) rotate(0) translate(4 256)">
<title>g</title>
<polygon fill="white" stroke="none" points="-4,4 -4,-256 375,-256 375,4 -4,4"/>
<!-- TCPAlgorithm -->
<g id="node1" class="node"><title>TCPAlgorithm</title>
<polygon fill="none" stroke="black" points="164.5,-252 66.5,-252 66.5,-216 164.5,-216 164.5,-252"/>
<text text-anchor="middle" x="115.5" y="-230.3" font-family="Times,serif" font-size="14.00">TCPAlgorithm</text>
</g>
<!-- DumbTCP -->
<g id="node2" class="node"><title>DumbTCP</title>
<polygon fill="none" stroke="black" points="103.5,-180 27.5,-180 27.5,-144 103.5,-144 103.5,-180"/>
<text text-anchor="middle" x="65.5" y="-158.3" font-family="Times,serif" font-size="14.00">DumbTCP</text>
</g>
<!-- DumbTCP&#45;&gt;TCPAlgorithm -->
<g id="edge1" class="edge"><title>DumbTCP&#45;&gt;TCPAlgorithm</title>
<path fill="none" stroke="black" d="M77.8596,-180.303C83.7328,-188.526 90.8691,-198.517 97.3424,-207.579"/>
<polygon fill="none" stroke="black" points="94.6221,-209.793 103.283,-215.896 100.318,-205.724 94.6221,-209.793"/>
</g>
<!-- TCPBaseAlg -->
<g id="node3" class="node"><title>TCPBaseAlg</title>
<polygon fill="none" stroke="black" points="209.5,-180 121.5,-180 121.5,-144 209.5,-144 209.5,-180"/>
<text text-anchor="middle" x="165.5" y="-158.3" font-family="Times,serif" font-size="14.00">TCPBaseAlg</text>
</g>
<!-- TCPBaseAlg&#45;&gt;TCPAlgorithm -->
<g id="edge2" class="edge"><title>TCPBaseAlg&#45;&gt;TCPAlgorithm</title>
<path fill="none" stroke="black" d="M153.14,-180.303C147.267,-188.526 140.131,-198.517 133.658,-207.579"/>
<polygon fill="none" stroke="black" points="130.682,-205.724 127.717,-215.896 136.378,-209.793 130.682,-205.724"/>
</g>
<!-- TCPNoCongestionControl -->
<g id="node4" class="node"><title>TCPNoCongestionControl</title>
<polygon fill="none" stroke="black" points="161,-108 0,-108 0,-72 161,-72 161,-108"/>
<text text-anchor="middle" x="80.5" y="-86.3" font-family="Times,serif" font-size="14.00">TCPNoCongestionControl</text>
</g>
<!-- TCPNoCongestionControl&#45;&gt;TCPBaseAlg -->
<g id="edge3" class="edge"><title>TCPNoCongestionControl&#45;&gt;TCPBaseAlg</title>
<path fill="none" stroke="black" d="M101.511,-108.303C112.216,-117.119 125.39,-127.968 136.996,-137.526"/>
<polygon fill="black" stroke="black" points="134.786,-140.24 144.73,-143.896 139.236,-134.837 134.786,-140.24"/>
</g>
<!-- TCPTahoeRenoFamily -->
<g id="node5" class="node"><title>TCPTahoeRenoFamily</title>
<polygon fill="none" stroke="black" points="322,-108 179,-108 179,-72 322,-72 322,-108"/>
<text text-anchor="middle" x="250.5" y="-86.3" font-family="Times,serif" font-size="14.00">TCPTahoeRenoFamily</text>
</g>
<!-- TCPTahoeRenoFamily&#45;&gt;TCPBaseAlg -->
<g id="edge4" class="edge"><title>TCPTahoeRenoFamily&#45;&gt;TCPBaseAlg</title>
<path fill="none" stroke="black" d="M229.489,-108.303C218.784,-117.119 205.61,-127.968 194.004,-137.526"/>
<polygon fill="black" stroke="black" points="191.764,-134.837 186.27,-143.896 196.214,-140.24 191.764,-134.837"/>
</g>
<!-- TCPTahoe -->
<g id="node6" class="node"><title>TCPTahoe</title>
<polygon fill="none" stroke="black" points="197,-36 122,-36 122,-0 197,-0 197,-36"/>
<text text-anchor="middle" x="159.5" y="-14.3" font-family="Times,serif" font-size="14.00">TCPTahoe</text>
</g>
<!-- TCPTahoe&#45;&gt;TCPTahoeRenoFamily -->
<g id="edge5" class="edge"><title>TCPTahoe&#45;&gt;TCPTahoeRenoFamily</title>
<path fill="none" stroke="black" d="M181.994,-36.3034C193.455,-45.1193 207.558,-55.9679 219.984,-65.5258"/>
<polygon fill="black" stroke="black" points="218.204,-68.5727 228.264,-71.8957 222.472,-63.0243 218.204,-68.5727"/>
</g>
<!-- TCPReno -->
<g id="node7" class="node"><title>TCPReno</title>
<polygon fill="none" stroke="black" points="285.5,-36 215.5,-36 215.5,-0 285.5,-0 285.5,-36"/>
<text text-anchor="middle" x="250.5" y="-14.3" font-family="Times,serif" font-size="14.00">TCPReno</text>
</g>
<!-- TCPReno&#45;&gt;TCPTahoeRenoFamily -->
<g id="edge6" class="edge"><title>TCPReno&#45;&gt;TCPTahoeRenoFamily</title>
<path fill="none" stroke="black" d="M250.5,-36.3034C250.5,-44.0173 250.5,-53.2875 250.5,-61.8876"/>
<polygon fill="black" stroke="black" points="247,-61.8956 250.5,-71.8957 254,-61.8957 247,-61.8956"/>
</g>
<!-- TCPNew -->
<g id="node8" class="node"><title>TCPNew</title>
<polygon fill="none" stroke="black" points="371,-36 304,-36 304,-0 371,-0 371,-36"/>
<text text-anchor="middle" x="337.5" y="-14.3" font-family="Times,serif" font-size="14.00">TCPNew</text>
</g>
<!-- TCPNew&#45;&gt;TCPTahoeRenoFamily -->
<g id="edge7" class="edge"><title>TCPNew&#45;&gt;TCPTahoeRenoFamily</title>
<path fill="none" stroke="black" d="M315.994,-36.3034C305.037,-45.1193 291.554,-55.9679 279.675,-65.5258"/>
<polygon fill="black" stroke="black" points="277.355,-62.8999 271.758,-71.8957 281.744,-68.3538 277.355,-62.8999"/>
</g>
</g>
</svg>
