<?xml version="1.0" encoding="UTF-8" standalone="no"?>
<!DOCTYPE svg PUBLIC "-//W3C//DTD SVG 1.1//EN"
 "http://www.w3.org/Graphics/SVG/1.1/DTD/svg11.dtd">
<!-- Generated by graphviz version 2.40.1 (20161225.0304)
 -->
<!-- Title: g Pages: 1 -->
<svg width="504pt" height="122pt"
 viewBox="0.00 0.00 504.00 122.23" xmlns="http://www.w3.org/2000/svg" xmlns:xlink="http://www.w3.org/1999/xlink">
<g id="graph0" class="graph" transform="scale(.3682 .3682) rotate(0) translate(4 328)">
<title>g</title>
<polygon fill="#ffffff" stroke="transparent" points="-4,4 -4,-328 1365,-328 1365,4 -4,4"/>
<!-- IMobility -->
<g id="node1" class="node">
<title>IMobility</title>
<polygon fill="none" stroke="#000000" points="633.5,-324 564.5,-324 564.5,-288 633.5,-288 633.5,-324"/>
<text text-anchor="middle" x="599" y="-302.3" font-family="Times,serif" font-size="14.00" fill="#000000">IMobility</text>
</g>
<!-- MobilityBase -->
<g id="node2" class="node">
<title>MobilityBase</title>
<polygon fill="none" stroke="#000000" points="644.5,-252 553.5,-252 553.5,-216 644.5,-216 644.5,-252"/>
<text text-anchor="middle" x="599" y="-230.3" font-family="Times,serif" font-size="14.00" fill="#000000">MobilityBase</text>
</g>
<!-- MobilityBase&#45;&gt;IMobility -->
<g id="edge1" class="edge">
<title>MobilityBase&#45;&gt;IMobility</title>
<path fill="none" stroke="#000000" d="M599,-252.1686C599,-259.869 599,-269.0257 599,-277.5834"/>
<polygon fill="none" stroke="#000000" points="595.5001,-277.5867 599,-287.5867 602.5001,-277.5868 595.5001,-277.5867"/>
</g>
<!-- MovingMobilityBase -->
<g id="node3" class="node">
<title>MovingMobilityBase</title>
<polygon fill="none" stroke="#000000" points="594,-180 460,-180 460,-144 594,-144 594,-180"/>
<text text-anchor="middle" x="527" y="-158.3" font-family="Times,serif" font-size="14.00" fill="#000000">MovingMobilityBase</text>
</g>
<!-- MovingMobilityBase&#45;&gt;MobilityBase -->
<g id="edge2" class="edge">
<title>MovingMobilityBase&#45;&gt;MobilityBase</title>
<path fill="none" stroke="#000000" d="M545.1686,-180.1686C553.7152,-188.7152 564.0557,-199.0557 573.3802,-208.3802"/>
<polygon fill="#000000" stroke="#000000" points="571.0408,-210.9905 580.5867,-215.5867 575.9905,-206.0408 571.0408,-210.9905"/>
</g>
<!-- StationaryMobility -->
<g id="node4" class="node">
<title>StationaryMobility</title>
<polygon fill="none" stroke="#000000" points="821,-180 701,-180 701,-144 821,-144 821,-180"/>
<text text-anchor="middle" x="761" y="-158.3" font-family="Times,serif" font-size="14.00" fill="#000000">StationaryMobility</text>
</g>
<!-- StationaryMobility&#45;&gt;MobilityBase -->
<g id="edge3" class="edge">
<title>StationaryMobility&#45;&gt;MobilityBase</title>
<path fill="none" stroke="#000000" d="M720.1206,-180.1686C698.454,-189.7982 671.6637,-201.705 648.7922,-211.8701"/>
<polygon fill="#000000" stroke="#000000" points="647.3021,-208.7022 639.5855,-215.962 650.1451,-215.0989 647.3021,-208.7022"/>
</g>
<!-- StaticGridMobility -->
<g id="node5" class="node">
<title>StaticGridMobility</title>
<polygon fill="none" stroke="#000000" points="911,-108 791,-108 791,-72 911,-72 911,-108"/>
<text text-anchor="middle" x="851" y="-86.3" font-family="Times,serif" font-size="14.00" fill="#000000">StaticGridMobility</text>
</g>
<!-- StaticGridMobility&#45;&gt;StationaryMobility -->
<g id="edge4" class="edge">
<title>StaticGridMobility&#45;&gt;StationaryMobility</title>
<path fill="none" stroke="#000000" d="M828.2892,-108.1686C817.204,-117.0368 803.7046,-127.8363 791.7148,-137.4282"/>
<polygon fill="#000000" stroke="#000000" points="789.3258,-134.8571 783.7035,-143.8372 793.6987,-140.3232 789.3258,-134.8571"/>
</g>
<!-- CircleMobility -->
<g id="node6" class="node">
<title>CircleMobility</title>
<polygon fill="none" stroke="#000000" points="331,-108 233,-108 233,-72 331,-72 331,-108"/>
<text text-anchor="middle" x="282" y="-86.3" font-family="Times,serif" font-size="14.00" fill="#000000">CircleMobility</text>
</g>
<!-- CircleMobility&#45;&gt;MovingMobilityBase -->
<g id="edge5" class="edge">
<title>CircleMobility&#45;&gt;MovingMobilityBase</title>
<path fill="none" stroke="#000000" d="M331.0269,-105.29C334.0614,-106.2132 337.071,-107.1227 340,-108 377.2701,-119.1634 418.8408,-131.208 453.305,-141.0832"/>
<polygon fill="#000000" stroke="#000000" points="452.7154,-144.5549 463.2924,-143.9413 454.6413,-137.825 452.7154,-144.5549"/>
</g>
<!-- LinearMobility -->
<g id="node7" class="node">
<title>LinearMobility</title>
<polygon fill="none" stroke="#000000" points="449,-108 349,-108 349,-72 449,-72 449,-108"/>
<text text-anchor="middle" x="399" y="-86.3" font-family="Times,serif" font-size="14.00" fill="#000000">LinearMobility</text>
</g>
<!-- LinearMobility&#45;&gt;MovingMobilityBase -->
<g id="edge6" class="edge">
<title>LinearMobility&#45;&gt;MovingMobilityBase</title>
<path fill="none" stroke="#000000" d="M431.2998,-108.1686C447.8234,-117.4632 468.1186,-128.8792 485.7607,-138.8029"/>
<polygon fill="#000000" stroke="#000000" points="484.2788,-141.985 494.7105,-143.8372 487.7107,-135.884 484.2788,-141.985"/>
</g>
<!-- RectangleMobility -->
<g id="node8" class="node">
<title>RectangleMobility</title>
<polygon fill="none" stroke="#000000" points="586.5,-108 467.5,-108 467.5,-72 586.5,-72 586.5,-108"/>
<text text-anchor="middle" x="527" y="-86.3" font-family="Times,serif" font-size="14.00" fill="#000000">RectangleMobility</text>
</g>
<!-- RectangleMobility&#45;&gt;MovingMobilityBase -->
<g id="edge7" class="edge">
<title>RectangleMobility&#45;&gt;MovingMobilityBase</title>
<path fill="none" stroke="#000000" d="M527,-108.1686C527,-115.869 527,-125.0257 527,-133.5834"/>
<polygon fill="#000000" stroke="#000000" points="523.5001,-133.5867 527,-143.5867 530.5001,-133.5868 523.5001,-133.5867"/>
</g>
<!-- LineSegmentsMobilityBase -->
<g id="node9" class="node">
<title>LineSegmentsMobilityBase</title>
<polygon fill="none" stroke="#000000" points="773.5,-108 604.5,-108 604.5,-72 773.5,-72 773.5,-108"/>
<text text-anchor="middle" x="689" y="-86.3" font-family="Times,serif" font-size="14.00" fill="#000000">LineSegmentsMobilityBase</text>
</g>
<!-- LineSegmentsMobilityBase&#45;&gt;MovingMobilityBase -->
<g id="edge8" class="edge">
<title>LineSegmentsMobilityBase&#45;&gt;MovingMobilityBase</title>
<path fill="none" stroke="#000000" d="M648.1206,-108.1686C626.454,-117.7982 599.6637,-129.705 576.7922,-139.8701"/>
<polygon fill="#000000" stroke="#000000" points="575.3021,-136.7022 567.5855,-143.962 578.1451,-143.0989 575.3021,-136.7022"/>
</g>
<!-- TractorMobility -->
<g id="node10" class="node">
<title>TractorMobility</title>
<polygon fill="none" stroke="#000000" points="104,-36 0,-36 0,0 104,0 104,-36"/>
<text text-anchor="middle" x="52" y="-14.3" font-family="Times,serif" font-size="14.00" fill="#000000">TractorMobility</text>
</g>
<!-- TractorMobility&#45;&gt;LineSegmentsMobilityBase -->
<g id="edge9" class="edge">
<title>TractorMobility&#45;&gt;LineSegmentsMobilityBase</title>
<path fill="none" stroke="#000000" d="M104.0674,-34.1551C107.0747,-34.841 110.0673,-35.4641 113,-36 321.1208,-74.0318 380.2636,-44.6713 594.2907,-72.0109"/>
<polygon fill="#000000" stroke="#000000" points="593.9014,-75.4897 604.27,-73.3121 594.8065,-68.5484 593.9014,-75.4897"/>
</g>
<!-- RandomWPMobility -->
<g id="node11" class="node">
<title>RandomWPMobility</title>
<polygon fill="none" stroke="#000000" points="254,-36 122,-36 122,0 254,0 254,-36"/>
<text text-anchor="middle" x="188" y="-14.3" font-family="Times,serif" font-size="14.00" fill="#000000">RandomWPMobility</text>
</g>
<!-- RandomWPMobility&#45;&gt;LineSegmentsMobilityBase -->
<g id="edge10" class="edge">
<title>RandomWPMobility&#45;&gt;LineSegmentsMobilityBase</title>
<path fill="none" stroke="#000000" d="M254.1581,-34.3619C257.1398,-34.9465 260.0974,-35.4964 263,-36 406.0943,-60.8252 446.4909,-50.4956 594.3543,-71.9816"/>
<polygon fill="#000000" stroke="#000000" points="593.8473,-75.4446 604.2514,-73.4436 594.8703,-68.5198 593.8473,-75.4446"/>
</g>
<!-- GaussMarkovMobilityBase -->
<g id="node12" class="node">
<title>GaussMarkovMobilityBase</title>
<polygon fill="none" stroke="#000000" points="439.5,-36 272.5,-36 272.5,0 439.5,0 439.5,-36"/>
<text text-anchor="middle" x="356" y="-14.3" font-family="Times,serif" font-size="14.00" fill="#000000">GaussMarkovMobilityBase</text>
</g>
<!-- GaussMarkovMobilityBase&#45;&gt;LineSegmentsMobilityBase -->
<g id="edge11" class="edge">
<title>GaussMarkovMobilityBase&#45;&gt;LineSegmentsMobilityBase</title>
<path fill="none" stroke="#000000" d="M439.6001,-36.0757C487.0936,-46.3446 546.669,-59.2257 595.6821,-69.8232"/>
<polygon fill="#000000" stroke="#000000" points="595.1405,-73.2869 605.6543,-71.9793 596.6199,-66.445 595.1405,-73.2869"/>
</g>
<!-- MassMobility -->
<g id="node13" class="node">
<title>MassMobility</title>
<polygon fill="none" stroke="#000000" points="552,-36 458,-36 458,0 552,0 552,-36"/>
<text text-anchor="middle" x="505" y="-14.3" font-family="Times,serif" font-size="14.00" fill="#000000">MassMobility</text>
</g>
<!-- MassMobility&#45;&gt;LineSegmentsMobilityBase -->
<g id="edge12" class="edge">
<title>MassMobility&#45;&gt;LineSegmentsMobilityBase</title>
<path fill="none" stroke="#000000" d="M551.431,-36.1686C576.368,-45.9266 607.2809,-58.023 633.4826,-68.2758"/>
<polygon fill="#000000" stroke="#000000" points="632.3151,-71.5773 642.9029,-71.962 634.8659,-65.0586 632.3151,-71.5773"/>
</g>
<!-- ChiangMobility -->
<g id="node14" class="node">
<title>ChiangMobility</title>
<polygon fill="none" stroke="#000000" points="674,-36 570,-36 570,0 674,0 674,-36"/>
<text text-anchor="middle" x="622" y="-14.3" font-family="Times,serif" font-size="14.00" fill="#000000">ChiangMobility</text>
</g>
<!-- ChiangMobility&#45;&gt;LineSegmentsMobilityBase -->
<g id="edge13" class="edge">
<title>ChiangMobility&#45;&gt;LineSegmentsMobilityBase</title>
<path fill="none" stroke="#000000" d="M638.9069,-36.1686C646.7813,-44.6306 656.292,-54.8511 664.9013,-64.1029"/>
<polygon fill="#000000" stroke="#000000" points="662.4908,-66.6503 671.8654,-71.5867 667.6153,-61.8817 662.4908,-66.6503"/>
</g>
<!-- ConstSpeedMobility -->
<g id="node15" class="node">
<title>ConstSpeedMobility</title>
<polygon fill="none" stroke="#000000" points="821.5,-36 692.5,-36 692.5,0 821.5,0 821.5,-36"/>
<text text-anchor="middle" x="757" y="-14.3" font-family="Times,serif" font-size="14.00" fill="#000000">ConstSpeedMobility</text>
</g>
<!-- ConstSpeedMobility&#45;&gt;LineSegmentsMobilityBase -->
<g id="edge14" class="edge">
<title>ConstSpeedMobility&#45;&gt;LineSegmentsMobilityBase</title>
<path fill="none" stroke="#000000" d="M739.8407,-36.1686C731.8489,-44.6306 722.1962,-54.8511 713.4584,-64.1029"/>
<polygon fill="#000000" stroke="#000000" points="710.712,-61.9134 706.3903,-71.5867 715.8011,-66.7198 710.712,-61.9134"/>
</g>
<!-- ANSimMobility -->
<g id="node16" class="node">
<title>ANSimMobility</title>
<polygon fill="none" stroke="#000000" points="946.5,-36 839.5,-36 839.5,0 946.5,0 946.5,-36"/>
<text text-anchor="middle" x="893" y="-14.3" font-family="Times,serif" font-size="14.00" fill="#000000">ANSimMobility</text>
</g>
<!-- ANSimMobility&#45;&gt;LineSegmentsMobilityBase -->
<g id="edge15" class="edge">
<title>ANSimMobility&#45;&gt;LineSegmentsMobilityBase</title>
<path fill="none" stroke="#000000" d="M841.7855,-36.0757C813.8975,-45.9185 779.2094,-58.1614 749.9373,-68.4927"/>
<polygon fill="#000000" stroke="#000000" points="748.5006,-65.2881 740.2356,-71.9169 750.8304,-71.8891 748.5006,-65.2881"/>
</g>
<!-- BonnMotionMobility -->
<g id="node17" class="node">
<title>BonnMotionMobility</title>
<polygon fill="none" stroke="#000000" points="1099,-36 965,-36 965,0 1099,0 1099,-36"/>
<text text-anchor="middle" x="1032" y="-14.3" font-family="Times,serif" font-size="14.00" fill="#000000">BonnMotionMobility</text>
</g>
<!-- BonnMotionMobility&#45;&gt;LineSegmentsMobilityBase -->
<g id="edge16" class="edge">
<title>BonnMotionMobility&#45;&gt;LineSegmentsMobilityBase</title>
<path fill="none" stroke="#000000" d="M964.8907,-34.0211C961.8879,-34.698 958.9137,-35.3605 956,-36 898.9442,-48.5227 834.7905,-61.5321 783.67,-71.6433"/>
<polygon fill="#000000" stroke="#000000" points="782.7586,-68.2556 773.6257,-73.626 784.1142,-75.1231 782.7586,-68.2556"/>
</g>
<!-- Ns2MotionMobility -->
<g id="node18" class="node">
<title>Ns2MotionMobility</title>
<polygon fill="none" stroke="#000000" points="1244.5,-36 1117.5,-36 1117.5,0 1244.5,0 1244.5,-36"/>
<text text-anchor="middle" x="1181" y="-14.3" font-family="Times,serif" font-size="14.00" fill="#000000">Ns2MotionMobility</text>
</g>
<!-- Ns2MotionMobility&#45;&gt;LineSegmentsMobilityBase -->
<g id="edge17" class="edge">
<title>Ns2MotionMobility&#45;&gt;LineSegmentsMobilityBase</title>
<path fill="none" stroke="#000000" d="M1117.4042,-34.2046C1114.2322,-34.8483 1111.0844,-35.4519 1108,-36 967.7025,-60.9315 927.8963,-50.6245 783.7038,-71.813"/>
<polygon fill="#000000" stroke="#000000" points="782.9691,-68.3839 773.5966,-73.3242 784.0043,-75.3069 782.9691,-68.3839"/>
</g>
<!-- TurtleMobility -->
<g id="node19" class="node">
<title>TurtleMobility</title>
<polygon fill="none" stroke="#000000" points="1361,-36 1263,-36 1263,0 1361,0 1361,-36"/>
<text text-anchor="middle" x="1312" y="-14.3" font-family="Times,serif" font-size="14.00" fill="#000000">TurtleMobility</text>
</g>
<!-- TurtleMobility&#45;&gt;LineSegmentsMobilityBase -->
<g id="edge18" class="edge">
<title>TurtleMobility&#45;&gt;LineSegmentsMobilityBase</title>
<path fill="none" stroke="#000000" d="M1262.8302,-34.0846C1259.8591,-34.7992 1256.8998,-35.4468 1254,-36 1050.5696,-74.812 992.3233,-44.9305 783.6317,-71.8752"/>
<polygon fill="#000000" stroke="#000000" points="783.0352,-68.4235 773.5791,-73.2017 783.9511,-75.3633 783.0352,-68.4235"/>
</g>
</g>
</svg>
