<?xml version="1.0" encoding="UTF-8" standalone="no"?>
<!DOCTYPE svg PUBLIC "-//W3C//DTD SVG 1.1//EN"
 "http://www.w3.org/Graphics/SVG/1.1/DTD/svg11.dtd">
<!-- Generated by graphviz version 2.38.0 (20140413.2041)
 -->
<!-- Title: g Pages: 1 -->
<svg width="288pt" height="234pt"
 viewBox="0.00 0.00 288.00 234.22" xmlns="http://www.w3.org/2000/svg" xmlns:xlink="http://www.w3.org/1999/xlink">
<g id="graph0" class="graph" transform="scale(0.446991 0.446991) rotate(0) translate(4 520)">
<title>g</title>
<polygon fill="white" stroke="none" points="-4,4 -4,-520 640.308,-520 640.308,4 -4,4"/>
<!-- TX_IDLE -->
<g id="node1" class="node"><title>TX_IDLE</title>
<ellipse fill="none" stroke="black" cx="334.308" cy="-498" rx="46.5926" ry="18"/>
<text text-anchor="middle" x="334.308" y="-494.3" font-family="Times,serif" font-size="14.00">TX_IDLE</text>
</g>
<!-- WAIT_IFG -->
<g id="node2" class="node"><title>WAIT_IFG</title>
<ellipse fill="none" stroke="black" cx="167.308" cy="-396" rx="52.7911" ry="18"/>
<text text-anchor="middle" x="167.308" y="-392.3" font-family="Times,serif" font-size="14.00">WAIT_IFG</text>
</g>
<!-- TX_IDLE&#45;&gt;WAIT_IFG -->
<g id="edge2" class="edge"><title>TX_IDLE&#45;&gt;WAIT_IFG</title>
<path fill="none" stroke="black" d="M294.737,-488.199C274.735,-482.629 250.665,-474.146 231.308,-462 214.2,-451.266 198.254,-435.095 186.559,-421.569"/>
<polygon fill="black" stroke="black" points="188.957,-418.981 179.853,-413.56 183.59,-423.475 188.957,-418.981"/>
<text text-anchor="middle" x="275.808" y="-450.8" font-family="Times,serif" font-size="14.00">msg from upper</text>
<text text-anchor="middle" x="275.808" y="-435.8" font-family="Times,serif" font-size="14.00">no burst</text>
</g>
<!-- SEND_IFG -->
<g id="node3" class="node"><title>SEND_IFG</title>
<ellipse fill="none" stroke="black" cx="246.308" cy="-192" rx="51.9908" ry="18"/>
<text text-anchor="middle" x="246.308" y="-188.3" font-family="Times,serif" font-size="14.00">SEND_IFG</text>
</g>
<!-- TX_IDLE&#45;&gt;SEND_IFG -->
<g id="edge1" class="edge"><title>TX_IDLE&#45;&gt;SEND_IFG</title>
<path fill="none" stroke="black" d="M288.502,-494.018C213.492,-486.309 67.0375,-458.708 9.30815,-360 -38.3081,-278.583 110.76,-226.881 194.092,-205.014"/>
<polygon fill="black" stroke="black" points="195.095,-208.37 203.911,-202.495 193.355,-201.59 195.095,-208.37"/>
<text text-anchor="middle" x="53.8081" y="-348.8" font-family="Times,serif" font-size="14.00">msg from upper</text>
<text text-anchor="middle" x="53.8081" y="-333.8" font-family="Times,serif" font-size="14.00">in burst</text>
</g>
<!-- TRANSMITTING -->
<g id="node4" class="node"><title>TRANSMITTING</title>
<ellipse fill="none" stroke="black" cx="261.308" cy="-294" rx="77.1866" ry="18"/>
<text text-anchor="middle" x="261.308" y="-290.3" font-family="Times,serif" font-size="14.00">TRANSMITTING</text>
</g>
<!-- WAIT_IFG&#45;&gt;TRANSMITTING -->
<g id="edge3" class="edge"><title>WAIT_IFG&#45;&gt;TRANSMITTING</title>
<path fill="none" stroke="black" d="M154.227,-378.427C144.869,-364.417 135.647,-344.388 146.308,-330 155.04,-318.215 167.645,-310.263 181.338,-304.927"/>
<polygon fill="black" stroke="black" points="182.629,-308.185 190.958,-301.637 180.364,-301.562 182.629,-308.185"/>
<text text-anchor="middle" x="192.808" y="-341.3" font-family="Times,serif" font-size="14.00">gap time elapsed</text>
</g>
<!-- SEND_IFG&#45;&gt;TRANSMITTING -->
<g id="edge4" class="edge"><title>SEND_IFG&#45;&gt;TRANSMITTING</title>
<path fill="none" stroke="black" d="M215.119,-206.515C206.49,-211.881 198.167,-218.969 193.308,-228 186.991,-239.742 186.365,-246.617 193.308,-258 197.159,-264.312 202.551,-269.535 208.634,-273.842"/>
<polygon fill="black" stroke="black" points="206.925,-276.9 217.275,-279.166 210.597,-270.941 206.925,-276.9"/>
<text text-anchor="middle" x="216.308" y="-239.3" font-family="Times,serif" font-size="14.00">gap sent</text>
</g>
<!-- JAMMING -->
<g id="node5" class="node"><title>JAMMING</title>
<ellipse fill="none" stroke="black" cx="345.308" cy="-105" rx="52.7911" ry="18"/>
<text text-anchor="middle" x="345.308" y="-101.3" font-family="Times,serif" font-size="14.00">JAMMING</text>
</g>
<!-- SEND_IFG&#45;&gt;JAMMING -->
<g id="edge5" class="edge"><title>SEND_IFG&#45;&gt;JAMMING</title>
<path fill="none" stroke="black" d="M256.495,-174.327C263.436,-163.891 273.333,-150.644 284.308,-141 291.039,-135.086 298.923,-129.686 306.746,-124.992"/>
<polygon fill="black" stroke="black" points="308.539,-128 315.489,-120.003 305.069,-121.92 308.539,-128"/>
<text text-anchor="middle" x="307.808" y="-144.8" font-family="Times,serif" font-size="14.00">collision</text>
</g>
<!-- TRANSMITTING&#45;&gt;TX_IDLE -->
<g id="edge6" class="edge"><title>TRANSMITTING&#45;&gt;TX_IDLE</title>
<path fill="none" stroke="black" d="M296.284,-310.096C304.44,-315.246 312.219,-321.824 317.308,-330 344.107,-373.049 342.33,-434.728 338.442,-469.824"/>
<polygon fill="black" stroke="black" points="334.961,-469.457 337.197,-479.813 341.907,-470.323 334.961,-469.457"/>
<text text-anchor="middle" x="369.308" y="-392.3" font-family="Times,serif" font-size="14.00">tx finished</text>
</g>
<!-- TRANSMITTING&#45;&gt;WAIT_IFG -->
<g id="edge8" class="edge"><title>TRANSMITTING&#45;&gt;WAIT_IFG</title>
<path fill="none" stroke="black" d="M259.244,-312.023C256.719,-326.314 251.202,-346.503 239.308,-360 232.485,-367.743 223.563,-373.938 214.334,-378.833"/>
<polygon fill="black" stroke="black" points="212.554,-375.805 205.069,-383.303 215.596,-382.11 212.554,-375.805"/>
<text text-anchor="middle" x="284.308" y="-348.8" font-family="Times,serif" font-size="14.00">tx finished</text>
<text text-anchor="middle" x="284.308" y="-333.8" font-family="Times,serif" font-size="14.00">next</text>
</g>
<!-- TRANSMITTING&#45;&gt;SEND_IFG -->
<g id="edge7" class="edge"><title>TRANSMITTING&#45;&gt;SEND_IFG</title>
<path fill="none" stroke="black" d="M258.695,-275.581C256.415,-260.382 253.068,-238.067 250.428,-220.464"/>
<polygon fill="black" stroke="black" points="253.836,-219.589 248.891,-210.219 246.913,-220.628 253.836,-219.589"/>
<text text-anchor="middle" x="290.808" y="-246.8" font-family="Times,serif" font-size="14.00">tx finished</text>
<text text-anchor="middle" x="290.808" y="-231.8" font-family="Times,serif" font-size="14.00">next in burst</text>
</g>
<!-- TRANSMITTING&#45;&gt;JAMMING -->
<g id="edge9" class="edge"><title>TRANSMITTING&#45;&gt;JAMMING</title>
<path fill="none" stroke="black" d="M304.325,-278.925C313.972,-273.805 323.159,-266.985 329.308,-258 354.755,-220.817 353.484,-166.086 349.743,-133.446"/>
<polygon fill="black" stroke="black" points="353.181,-132.742 348.414,-123.28 346.24,-133.649 353.181,-132.742"/>
<text text-anchor="middle" x="375.808" y="-188.3" font-family="Times,serif" font-size="14.00">collision</text>
</g>
<!-- JAMMING&#45;&gt;TX_IDLE -->
<g id="edge11" class="edge"><title>JAMMING&#45;&gt;TX_IDLE</title>
<path fill="none" stroke="black" d="M371.119,-121.008C392.814,-135.77 420.308,-160.496 420.308,-191 420.308,-397 420.308,-397 420.308,-397 420.308,-430.797 391.721,-458.864 367.51,-476.574"/>
<polygon fill="black" stroke="black" points="365.371,-473.798 359.183,-482.398 369.383,-479.534 365.371,-473.798"/>
<text text-anchor="middle" x="471.808" y="-290.3" font-family="Times,serif" font-size="14.00">too many attempts</text>
</g>
<!-- BACKOFF -->
<g id="node6" class="node"><title>BACKOFF</title>
<ellipse fill="none" stroke="black" cx="345.308" cy="-18" rx="51.1914" ry="18"/>
<text text-anchor="middle" x="345.308" y="-14.3" font-family="Times,serif" font-size="14.00">BACKOFF</text>
</g>
<!-- JAMMING&#45;&gt;BACKOFF -->
<g id="edge10" class="edge"><title>JAMMING&#45;&gt;BACKOFF</title>
<path fill="none" stroke="black" d="M345.308,-86.799C345.308,-75.1626 345.308,-59.5479 345.308,-46.2368"/>
<polygon fill="black" stroke="black" points="348.808,-46.1754 345.308,-36.1754 341.808,-46.1755 348.808,-46.1754"/>
<text text-anchor="middle" x="368.808" y="-57.8" font-family="Times,serif" font-size="14.00">jam sent</text>
</g>
<!-- BACKOFF&#45;&gt;TX_IDLE -->
<g id="edge13" class="edge"><title>BACKOFF&#45;&gt;TX_IDLE</title>
<path fill="none" stroke="black" d="M396.759,-18.9294C457.775,-21.87 551.308,-37.2618 551.308,-104 551.308,-397 551.308,-397 551.308,-397 551.308,-467.678 455.182,-488.572 390.886,-494.642"/>
<polygon fill="black" stroke="black" points="390.528,-491.16 380.86,-495.495 391.121,-498.135 390.528,-491.16"/>
<text text-anchor="middle" x="593.808" y="-239.3" font-family="Times,serif" font-size="14.00">carrier detected</text>
</g>
<!-- BACKOFF&#45;&gt;WAIT_IFG -->
<g id="edge12" class="edge"><title>BACKOFF&#45;&gt;WAIT_IFG</title>
<path fill="none" stroke="black" d="M299.275,-26.1822C231.372,-38.0951 112.308,-64.601 112.308,-104 112.308,-295 112.308,-295 112.308,-295 112.308,-323.651 129.856,-351.84 145.128,-370.949"/>
<polygon fill="black" stroke="black" points="142.597,-373.377 151.694,-378.807 147.968,-368.889 142.597,-373.377"/>
<text text-anchor="middle" x="138.808" y="-188.3" font-family="Times,serif" font-size="14.00">no carrier</text>
</g>
</g>
</svg>
