<?xml version="1.0" encoding="UTF-8" standalone="no"?>
<!DOCTYPE svg PUBLIC "-//W3C//DTD SVG 1.1//EN"
 "http://www.w3.org/Graphics/SVG/1.1/DTD/svg11.dtd">
<!-- Generated by graphviz version 2.40.1 (20161225.0304)
 -->
<!-- Title: g Pages: 1 -->
<svg width="504pt" height="102pt"
 viewBox="0.00 0.00 504.00 102.22" xmlns="http://www.w3.org/2000/svg" xmlns:xlink="http://www.w3.org/1999/xlink">
<g id="graph0" class="graph" transform="scale(.3079 .3079) rotate(0) translate(4 328)">
<title>g</title>
<polygon fill="#ffffff" stroke="transparent" points="-4,4 -4,-328 1633,-328 1633,4 -4,4"/>
<!-- IMobility -->
<g id="node1" class="node">
<title>IMobility</title>
<polygon fill="none" stroke="#000000" points="758,-324 676,-324 676,-288 758,-288 758,-324"/>
<text text-anchor="middle" x="717" y="-302.3" font-family="Times,serif" font-size="14.00" fill="#000000">IMobility</text>
</g>
<!-- MobilityBase -->
<g id="node2" class="node">
<title>MobilityBase</title>
<polygon fill="none" stroke="#000000" points="772,-252 662,-252 662,-216 772,-216 772,-252"/>
<text text-anchor="middle" x="717" y="-230.3" font-family="Times,serif" font-size="14.00" fill="#000000">MobilityBase</text>
</g>
<!-- MobilityBase&#45;&gt;IMobility -->
<g id="edge1" class="edge">
<title>MobilityBase&#45;&gt;IMobility</title>
<path fill="none" stroke="#000000" d="M717,-252.1686C717,-259.869 717,-269.0257 717,-277.5834"/>
<polygon fill="none" stroke="#000000" points="713.5001,-277.5867 717,-287.5867 720.5001,-277.5868 713.5001,-277.5867"/>
</g>
<!-- MovingMobilityBase -->
<g id="node3" class="node">
<title>MovingMobilityBase</title>
<polygon fill="none" stroke="#000000" points="711,-180 547,-180 547,-144 711,-144 711,-180"/>
<text text-anchor="middle" x="629" y="-158.3" font-family="Times,serif" font-size="14.00" fill="#000000">MovingMobilityBase</text>
</g>
<!-- MovingMobilityBase&#45;&gt;MobilityBase -->
<g id="edge2" class="edge">
<title>MovingMobilityBase&#45;&gt;MobilityBase</title>
<path fill="none" stroke="#000000" d="M651.2061,-180.1686C662.045,-189.0368 675.2444,-199.8363 686.9678,-209.4282"/>
<polygon fill="#000000" stroke="#000000" points="684.845,-212.2136 694.801,-215.8372 689.2777,-206.7959 684.845,-212.2136"/>
</g>
<!-- StationaryMobility -->
<g id="node4" class="node">
<title>StationaryMobility</title>
<polygon fill="none" stroke="#000000" points="991.5,-180 840.5,-180 840.5,-144 991.5,-144 991.5,-180"/>
<text text-anchor="middle" x="916" y="-158.3" font-family="Times,serif" font-size="14.00" fill="#000000">StationaryMobility</text>
</g>
<!-- StationaryMobility&#45;&gt;MobilityBase -->
<g id="edge3" class="edge">
<title>StationaryMobility&#45;&gt;MobilityBase</title>
<path fill="none" stroke="#000000" d="M866.0408,-180.0757C838.8363,-189.9185 804.9983,-202.1614 776.4438,-212.4927"/>
<polygon fill="#000000" stroke="#000000" points="775.1924,-209.2233 766.9798,-215.9169 777.5741,-215.8057 775.1924,-209.2233"/>
</g>
<!-- StaticGridMobility -->
<g id="node5" class="node">
<title>StaticGridMobility</title>
<polygon fill="none" stroke="#000000" points="1102,-108 952,-108 952,-72 1102,-72 1102,-108"/>
<text text-anchor="middle" x="1027" y="-86.3" font-family="Times,serif" font-size="14.00" fill="#000000">StaticGridMobility</text>
</g>
<!-- StaticGridMobility&#45;&gt;StationaryMobility -->
<g id="edge4" class="edge">
<title>StaticGridMobility&#45;&gt;StationaryMobility</title>
<path fill="none" stroke="#000000" d="M998.99,-108.1686C984.9239,-117.2926 967.706,-128.461 952.6067,-138.2551"/>
<polygon fill="#000000" stroke="#000000" points="950.486,-135.4588 944.001,-143.8372 954.2953,-141.3316 950.486,-135.4588"/>
</g>
<!-- CircleMobility -->
<g id="node6" class="node">
<title>CircleMobility</title>
<polygon fill="none" stroke="#000000" points="396.5,-108 277.5,-108 277.5,-72 396.5,-72 396.5,-108"/>
<text text-anchor="middle" x="337" y="-86.3" font-family="Times,serif" font-size="14.00" fill="#000000">CircleMobility</text>
</g>
<!-- CircleMobility&#45;&gt;MovingMobilityBase -->
<g id="edge5" class="edge">
<title>CircleMobility&#45;&gt;MovingMobilityBase</title>
<path fill="none" stroke="#000000" d="M396.8226,-105.6747C399.9251,-106.4661 402.9984,-107.2451 406,-108 451.2416,-119.3778 501.7586,-131.6466 543.2564,-141.61"/>
<polygon fill="#000000" stroke="#000000" points="542.5151,-145.0314 553.0556,-143.9602 544.1476,-138.2244 542.5151,-145.0314"/>
</g>
<!-- LinearMobility -->
<g id="node7" class="node">
<title>LinearMobility</title>
<polygon fill="none" stroke="#000000" points="537,-108 415,-108 415,-72 537,-72 537,-108"/>
<text text-anchor="middle" x="476" y="-86.3" font-family="Times,serif" font-size="14.00" fill="#000000">LinearMobility</text>
</g>
<!-- LinearMobility&#45;&gt;MovingMobilityBase -->
<g id="edge6" class="edge">
<title>LinearMobility&#45;&gt;MovingMobilityBase</title>
<path fill="none" stroke="#000000" d="M514.6084,-108.1686C534.8893,-117.7126 559.9238,-129.4935 581.3971,-139.5987"/>
<polygon fill="#000000" stroke="#000000" points="580.1308,-142.8709 590.6693,-143.962 583.1114,-136.5371 580.1308,-142.8709"/>
</g>
<!-- RectangleMobility -->
<g id="node8" class="node">
<title>RectangleMobility</title>
<polygon fill="none" stroke="#000000" points="703,-108 555,-108 555,-72 703,-72 703,-108"/>
<text text-anchor="middle" x="629" y="-86.3" font-family="Times,serif" font-size="14.00" fill="#000000">RectangleMobility</text>
</g>
<!-- RectangleMobility&#45;&gt;MovingMobilityBase -->
<g id="edge7" class="edge">
<title>RectangleMobility&#45;&gt;MovingMobilityBase</title>
<path fill="none" stroke="#000000" d="M629,-108.1686C629,-115.869 629,-125.0257 629,-133.5834"/>
<polygon fill="#000000" stroke="#000000" points="625.5001,-133.5867 629,-143.5867 632.5001,-133.5868 625.5001,-133.5867"/>
</g>
<!-- LineSegmentsMobilityBase -->
<g id="node9" class="node">
<title>LineSegmentsMobilityBase</title>
<polygon fill="none" stroke="#000000" points="934.5,-108 721.5,-108 721.5,-72 934.5,-72 934.5,-108"/>
<text text-anchor="middle" x="828" y="-86.3" font-family="Times,serif" font-size="14.00" fill="#000000">LineSegmentsMobilityBase</text>
</g>
<!-- LineSegmentsMobilityBase&#45;&gt;MovingMobilityBase -->
<g id="edge8" class="edge">
<title>LineSegmentsMobilityBase&#45;&gt;MovingMobilityBase</title>
<path fill="none" stroke="#000000" d="M778.0408,-108.0757C750.8363,-117.9185 716.9983,-130.1614 688.4438,-140.4927"/>
<polygon fill="#000000" stroke="#000000" points="687.1924,-137.2233 678.9798,-143.9169 689.5741,-143.8057 687.1924,-137.2233"/>
</g>
<!-- TractorMobility -->
<g id="node10" class="node">
<title>TractorMobility</title>
<polygon fill="none" stroke="#000000" points="130,-36 0,-36 0,0 130,0 130,-36"/>
<text text-anchor="middle" x="65" y="-14.3" font-family="Times,serif" font-size="14.00" fill="#000000">TractorMobility</text>
</g>
<!-- TractorMobility&#45;&gt;LineSegmentsMobilityBase -->
<g id="edge9" class="edge">
<title>TractorMobility&#45;&gt;LineSegmentsMobilityBase</title>
<path fill="none" stroke="#000000" d="M130.246,-34.5296C133.1961,-35.0688 136.1242,-35.5634 139,-36 387.9517,-73.7978 456.5273,-45.1843 710.9315,-71.9542"/>
<polygon fill="#000000" stroke="#000000" points="710.9123,-75.472 721.2282,-73.057 711.6578,-68.5119 710.9123,-75.472"/>
</g>
<!-- RandomWPMobility -->
<g id="node11" class="node">
<title>RandomWPMobility</title>
<polygon fill="none" stroke="#000000" points="307.5,-36 148.5,-36 148.5,0 307.5,0 307.5,-36"/>
<text text-anchor="middle" x="228" y="-14.3" font-family="Times,serif" font-size="14.00" fill="#000000">RandomWPMobility</text>
</g>
<!-- RandomWPMobility&#45;&gt;LineSegmentsMobilityBase -->
<g id="edge10" class="edge">
<title>RandomWPMobility&#45;&gt;LineSegmentsMobilityBase</title>
<path fill="none" stroke="#000000" d="M307.5554,-34.6852C310.4015,-35.1506 313.223,-35.5911 316,-36 487.596,-61.2696 534.8519,-50.8467 711.0801,-71.9392"/>
<polygon fill="#000000" stroke="#000000" points="710.8661,-75.4388 721.2151,-73.1697 711.7099,-68.4899 710.8661,-75.4388"/>
</g>
<!-- GaussMarkovMobilityBase -->
<g id="node12" class="node">
<title>GaussMarkovMobilityBase</title>
<polygon fill="none" stroke="#000000" points="534.5,-36 325.5,-36 325.5,0 534.5,0 534.5,-36"/>
<text text-anchor="middle" x="430" y="-14.3" font-family="Times,serif" font-size="14.00" fill="#000000">GaussMarkovMobilityBase</text>
</g>
<!-- GaussMarkovMobilityBase&#45;&gt;LineSegmentsMobilityBase -->
<g id="edge11" class="edge">
<title>GaussMarkovMobilityBase&#45;&gt;LineSegmentsMobilityBase</title>
<path fill="none" stroke="#000000" d="M529.6619,-36.0293C587.0159,-46.4049 659.1765,-59.4591 718.1618,-70.1298"/>
<polygon fill="#000000" stroke="#000000" points="717.7978,-73.6207 728.2612,-71.9568 719.044,-66.7325 717.7978,-73.6207"/>
</g>
<!-- MassMobility -->
<g id="node13" class="node">
<title>MassMobility</title>
<polygon fill="none" stroke="#000000" points="665.5,-36 552.5,-36 552.5,0 665.5,0 665.5,-36"/>
<text text-anchor="middle" x="609" y="-14.3" font-family="Times,serif" font-size="14.00" fill="#000000">MassMobility</text>
</g>
<!-- MassMobility&#45;&gt;LineSegmentsMobilityBase -->
<g id="edge12" class="edge">
<title>MassMobility&#45;&gt;LineSegmentsMobilityBase</title>
<path fill="none" stroke="#000000" d="M663.9803,-36.0757C694.1792,-46.0041 731.8058,-58.3745 763.4004,-68.7618"/>
<polygon fill="#000000" stroke="#000000" points="762.4042,-72.1185 772.9971,-71.9169 764.5905,-65.4687 762.4042,-72.1185"/>
</g>
<!-- ChiangMobility -->
<g id="node14" class="node">
<title>ChiangMobility</title>
<polygon fill="none" stroke="#000000" points="810.5,-36 683.5,-36 683.5,0 810.5,0 810.5,-36"/>
<text text-anchor="middle" x="747" y="-14.3" font-family="Times,serif" font-size="14.00" fill="#000000">ChiangMobility</text>
</g>
<!-- ChiangMobility&#45;&gt;LineSegmentsMobilityBase -->
<g id="edge13" class="edge">
<title>ChiangMobility&#45;&gt;LineSegmentsMobilityBase</title>
<path fill="none" stroke="#000000" d="M767.4397,-36.1686C777.3205,-44.9515 789.3324,-55.6288 800.045,-65.1511"/>
<polygon fill="#000000" stroke="#000000" points="797.7674,-67.8094 807.5668,-71.8372 802.418,-62.5776 797.7674,-67.8094"/>
</g>
<!-- ConstSpeedMobility -->
<g id="node15" class="node">
<title>ConstSpeedMobility</title>
<polygon fill="none" stroke="#000000" points="991,-36 829,-36 829,0 991,0 991,-36"/>
<text text-anchor="middle" x="910" y="-14.3" font-family="Times,serif" font-size="14.00" fill="#000000">ConstSpeedMobility</text>
</g>
<!-- ConstSpeedMobility&#45;&gt;LineSegmentsMobilityBase -->
<g id="edge14" class="edge">
<title>ConstSpeedMobility&#45;&gt;LineSegmentsMobilityBase</title>
<path fill="none" stroke="#000000" d="M889.3079,-36.1686C879.3052,-44.9515 867.145,-55.6288 856.3001,-65.1511"/>
<polygon fill="#000000" stroke="#000000" points="853.8906,-62.6091 848.6854,-71.8372 858.5092,-67.8692 853.8906,-62.6091"/>
</g>
<!-- ANSimMobility -->
<g id="node16" class="node">
<title>ANSimMobility</title>
<polygon fill="none" stroke="#000000" points="1136.5,-36 1009.5,-36 1009.5,0 1136.5,0 1136.5,-36"/>
<text text-anchor="middle" x="1073" y="-14.3" font-family="Times,serif" font-size="14.00" fill="#000000">ANSimMobility</text>
</g>
<!-- ANSimMobility&#45;&gt;LineSegmentsMobilityBase -->
<g id="edge15" class="edge">
<title>ANSimMobility&#45;&gt;LineSegmentsMobilityBase</title>
<path fill="none" stroke="#000000" d="M1011.4924,-36.0757C977.417,-46.0897 934.8882,-58.588 899.3563,-69.03"/>
<polygon fill="#000000" stroke="#000000" points="898.1403,-65.7392 889.5329,-71.9169 900.1141,-72.4552 898.1403,-65.7392"/>
</g>
<!-- BonnMotionMobility -->
<g id="node17" class="node">
<title>BonnMotionMobility</title>
<polygon fill="none" stroke="#000000" points="1317.5,-36 1154.5,-36 1154.5,0 1317.5,0 1317.5,-36"/>
<text text-anchor="middle" x="1236" y="-14.3" font-family="Times,serif" font-size="14.00" fill="#000000">BonnMotionMobility</text>
</g>
<!-- BonnMotionMobility&#45;&gt;LineSegmentsMobilityBase -->
<g id="edge16" class="edge">
<title>BonnMotionMobility&#45;&gt;LineSegmentsMobilityBase</title>
<path fill="none" stroke="#000000" d="M1154.103,-34.4848C1151.3705,-35.0012 1148.6637,-35.5076 1146,-36 1079.4937,-48.2947 1004.9604,-61.0078 944.7769,-71.008"/>
<polygon fill="#000000" stroke="#000000" points="944.1554,-67.5631 934.8629,-72.6523 945.3009,-74.4688 944.1554,-67.5631"/>
</g>
<!-- Ns2MotionMobility -->
<g id="node18" class="node">
<title>Ns2MotionMobility</title>
<polygon fill="none" stroke="#000000" points="1490.5,-36 1335.5,-36 1335.5,0 1490.5,0 1490.5,-36"/>
<text text-anchor="middle" x="1413" y="-14.3" font-family="Times,serif" font-size="14.00" fill="#000000">Ns2MotionMobility</text>
</g>
<!-- Ns2MotionMobility&#45;&gt;LineSegmentsMobilityBase -->
<g id="edge17" class="edge">
<title>Ns2MotionMobility&#45;&gt;LineSegmentsMobilityBase</title>
<path fill="none" stroke="#000000" d="M1335.2555,-34.6823C1332.4733,-35.1486 1329.7149,-35.59 1327,-36 1160.7349,-61.1116 1114.828,-51.1366 944.8295,-71.8164"/>
<polygon fill="#000000" stroke="#000000" points="944.283,-68.3572 934.7871,-73.0559 945.1405,-75.3045 944.283,-68.3572"/>
</g>
<!-- TurtleMobility -->
<g id="node19" class="node">
<title>TurtleMobility</title>
<polygon fill="none" stroke="#000000" points="1629,-36 1509,-36 1509,0 1629,0 1629,-36"/>
<text text-anchor="middle" x="1569" y="-14.3" font-family="Times,serif" font-size="14.00" fill="#000000">TurtleMobility</text>
</g>
<!-- TurtleMobility&#45;&gt;LineSegmentsMobilityBase -->
<g id="edge18" class="edge">
<title>TurtleMobility&#45;&gt;LineSegmentsMobilityBase</title>
<path fill="none" stroke="#000000" d="M1508.933,-34.3897C1505.9231,-34.9845 1502.9333,-35.527 1500,-36 1258.3198,-74.9681 1191.3341,-45.5884 944.7544,-71.8671"/>
<polygon fill="#000000" stroke="#000000" points="944.3385,-68.3915 934.7747,-72.9504 945.094,-75.3507 944.3385,-68.3915"/>
</g>
</g>
</svg>
