<?xml version="1.0" encoding="UTF-8" standalone="no"?>
<!DOCTYPE svg PUBLIC "-//W3C//DTD SVG 1.1//EN"
 "http://www.w3.org/Graphics/SVG/1.1/DTD/svg11.dtd">
<!-- Generated by graphviz version 2.40.1 (20161225.0304)
 -->
<!-- Title: g Pages: 1 -->
<svg width="288pt" height="182pt"
 viewBox="0.00 0.00 288.00 181.90" xmlns="http://www.w3.org/2000/svg" xmlns:xlink="http://www.w3.org/1999/xlink">
<g id="graph0" class="graph" transform="scale(.3471 .3471) rotate(0) translate(4 520)">
<title>g</title>
<polygon fill="#ffffff" stroke="transparent" points="-4,4 -4,-520 825.6246,-520 825.6246,4 -4,4"/>
<!-- TX_IDLE -->
<g id="node1" class="node">
<title>TX_IDLE</title>
<ellipse fill="none" stroke="#000000" cx="435.6246" cy="-498" rx="53.0913" ry="18"/>
<text text-anchor="middle" x="435.6246" y="-494.3" font-family="Times,serif" font-size="14.00" fill="#000000">TX_IDLE</text>
</g>
<!-- WAIT_IFG -->
<g id="node2" class="node">
<title>WAIT_IFG</title>
<ellipse fill="none" stroke="#000000" cx="225.6246" cy="-396" rx="59.5901" ry="18"/>
<text text-anchor="middle" x="225.6246" y="-392.3" font-family="Times,serif" font-size="14.00" fill="#000000">WAIT_IFG</text>
</g>
<!-- TX_IDLE&#45;&gt;WAIT_IFG -->
<g id="edge2" class="edge">
<title>TX_IDLE&#45;&gt;WAIT_IFG</title>
<path fill="none" stroke="#000000" d="M388.2165,-489.6655C363.0414,-484.0501 332.1227,-475.2075 306.6246,-462 285.776,-451.2008 265.3027,-434.4494 250.1552,-420.5256"/>
<polygon fill="#000000" stroke="#000000" points="252.4254,-417.8559 242.7456,-413.5486 247.6266,-422.9522 252.4254,-417.8559"/>
<text text-anchor="middle" x="364.1246" y="-450.8" font-family="Times,serif" font-size="14.00" fill="#000000">msg from upper</text>
<text text-anchor="middle" x="364.1246" y="-435.8" font-family="Times,serif" font-size="14.00" fill="#000000">no burst</text>
</g>
<!-- SEND_IFG -->
<g id="node3" class="node">
<title>SEND_IFG</title>
<ellipse fill="none" stroke="#000000" cx="330.6246" cy="-192" rx="61.99" ry="18"/>
<text text-anchor="middle" x="330.6246" y="-188.3" font-family="Times,serif" font-size="14.00" fill="#000000">SEND_IFG</text>
</g>
<!-- TX_IDLE&#45;&gt;SEND_IFG -->
<g id="edge1" class="edge">
<title>TX_IDLE&#45;&gt;SEND_IFG</title>
<path fill="none" stroke="#000000" d="M386.5825,-490.9381C351.0718,-485.0982 302.207,-475.5538 260.6246,-462 156.619,-428.0993 95.8165,-451.9932 36.6246,-360 -35.1799,-248.4048 -19.4186,-353.0975 250.6246,-228 262.5105,-222.4939 275.4398,-216.624 287.3698,-211.2564"/>
<polygon fill="#000000" stroke="#000000" points="288.9941,-214.3637 296.6841,-207.0758 286.1277,-207.9775 288.9941,-214.3637"/>
<text text-anchor="middle" x="94.1246" y="-348.8" font-family="Times,serif" font-size="14.00" fill="#000000">msg from upper</text>
<text text-anchor="middle" x="94.1246" y="-333.8" font-family="Times,serif" font-size="14.00" fill="#000000">in burst</text>
</g>
<!-- TRANSMITTING -->
<g id="node4" class="node">
<title>TRANSMITTING</title>
<ellipse fill="none" stroke="#000000" cx="343.6246" cy="-294" rx="90.9839" ry="18"/>
<text text-anchor="middle" x="343.6246" y="-290.3" font-family="Times,serif" font-size="14.00" fill="#000000">TRANSMITTING</text>
</g>
<!-- WAIT_IFG&#45;&gt;TRANSMITTING -->
<g id="edge3" class="edge">
<title>WAIT_IFG&#45;&gt;TRANSMITTING</title>
<path fill="none" stroke="#000000" d="M209.8767,-378.6285C198.9923,-364.4488 188.3319,-344.4635 199.6246,-330 207.6401,-319.7339 231.778,-311.9622 258.0561,-306.3156"/>
<polygon fill="#000000" stroke="#000000" points="259.0997,-309.6752 268.203,-304.2548 257.7064,-302.8153 259.0997,-309.6752"/>
<text text-anchor="middle" x="261.1246" y="-341.3" font-family="Times,serif" font-size="14.00" fill="#000000">gap time elapsed</text>
</g>
<!-- SEND_IFG&#45;&gt;TRANSMITTING -->
<g id="edge4" class="edge">
<title>SEND_IFG&#45;&gt;TRANSMITTING</title>
<path fill="none" stroke="#000000" d="M286.8782,-204.9572C276.1327,-210.3147 265.9171,-217.7543 259.6246,-228 252.6468,-239.3617 252.2847,-246.8688 259.6246,-258 264.1077,-264.7988 270.1699,-270.3185 276.9978,-274.7987"/>
<polygon fill="#000000" stroke="#000000" points="275.5751,-278.0167 285.9947,-279.9357 279.046,-271.9378 275.5751,-278.0167"/>
<text text-anchor="middle" x="290.6246" y="-239.3" font-family="Times,serif" font-size="14.00" fill="#000000">gap sent</text>
</g>
<!-- JAMMING -->
<g id="node5" class="node">
<title>JAMMING</title>
<ellipse fill="none" stroke="#000000" cx="451.6246" cy="-105" rx="59.5901" ry="18"/>
<text text-anchor="middle" x="451.6246" y="-101.3" font-family="Times,serif" font-size="14.00" fill="#000000">JAMMING</text>
</g>
<!-- SEND_IFG&#45;&gt;JAMMING -->
<g id="edge5" class="edge">
<title>SEND_IFG&#45;&gt;JAMMING</title>
<path fill="none" stroke="#000000" d="M344.047,-174.3711C352.7742,-163.748 364.8715,-150.4851 377.6246,-141 386.2252,-134.6034 396.1402,-128.8641 405.8606,-123.9463"/>
<polygon fill="#000000" stroke="#000000" points="407.595,-126.9954 415.0713,-119.4883 404.5453,-120.6946 407.595,-126.9954"/>
<text text-anchor="middle" x="407.6246" y="-144.8" font-family="Times,serif" font-size="14.00" fill="#000000">collision</text>
</g>
<!-- TRANSMITTING&#45;&gt;TX_IDLE -->
<g id="edge6" class="edge">
<title>TRANSMITTING&#45;&gt;TX_IDLE</title>
<path fill="none" stroke="#000000" d="M393.7509,-309.2448C403.3865,-314.3731 412.4008,-321.1341 418.6246,-330 447.7796,-371.5318 445.2804,-433.7058 440.6039,-469.6204"/>
<polygon fill="#000000" stroke="#000000" points="437.0888,-469.4721 439.1153,-479.8713 444.0162,-470.4781 437.0888,-469.4721"/>
<text text-anchor="middle" x="480.6246" y="-392.3" font-family="Times,serif" font-size="14.00" fill="#000000">tx finished</text>
</g>
<!-- TRANSMITTING&#45;&gt;WAIT_IFG -->
<g id="edge8" class="edge">
<title>TRANSMITTING&#45;&gt;WAIT_IFG</title>
<path fill="none" stroke="#000000" d="M342.1661,-312.1569C340.0753,-326.8039 334.9901,-347.0351 322.6246,-360 312.7483,-370.3551 299.6255,-377.7516 286.2331,-383.0281"/>
<polygon fill="#000000" stroke="#000000" points="284.7197,-379.8519 276.4764,-386.5075 287.071,-386.4452 284.7197,-379.8519"/>
<text text-anchor="middle" x="376.6246" y="-348.8" font-family="Times,serif" font-size="14.00" fill="#000000">tx finished</text>
<text text-anchor="middle" x="376.6246" y="-333.8" font-family="Times,serif" font-size="14.00" fill="#000000">next</text>
</g>
<!-- TRANSMITTING&#45;&gt;SEND_IFG -->
<g id="edge7" class="edge">
<title>TRANSMITTING&#45;&gt;SEND_IFG</title>
<path fill="none" stroke="#000000" d="M341.3005,-275.7644C339.3317,-260.317 336.4765,-237.9149 334.2142,-220.164"/>
<polygon fill="#000000" stroke="#000000" points="337.6649,-219.5549 332.9286,-210.0777 330.7211,-220.44 337.6649,-219.5549"/>
<text text-anchor="middle" x="386.1246" y="-246.8" font-family="Times,serif" font-size="14.00" fill="#000000">tx finished</text>
<text text-anchor="middle" x="386.1246" y="-231.8" font-family="Times,serif" font-size="14.00" fill="#000000">next in burst</text>
</g>
<!-- TRANSMITTING&#45;&gt;JAMMING -->
<g id="edge9" class="edge">
<title>TRANSMITTING&#45;&gt;JAMMING</title>
<path fill="none" stroke="#000000" d="M406.0543,-280.7551C417.8351,-275.5147 428.8752,-268.2024 436.6246,-258 464.0109,-221.9448 461.6884,-166.4893 457.005,-133.1776"/>
<polygon fill="#000000" stroke="#000000" points="460.446,-132.5283 455.436,-123.1928 453.5308,-133.6149 460.446,-132.5283"/>
<text text-anchor="middle" x="489.6246" y="-188.3" font-family="Times,serif" font-size="14.00" fill="#000000">collision</text>
</g>
<!-- JAMMING&#45;&gt;TX_IDLE -->
<g id="edge11" class="edge">
<title>JAMMING&#45;&gt;TX_IDLE</title>
<path fill="none" stroke="#000000" d="M483.8929,-120.5295C509.008,-135.1202 539.6246,-159.5597 539.6246,-192 539.6246,-396 539.6246,-396 539.6246,-396 539.6246,-433.129 505.4204,-461.2185 476.2433,-478.4253"/>
<polygon fill="#000000" stroke="#000000" points="474.3859,-475.4545 467.3932,-483.4139 477.8232,-481.5525 474.3859,-475.4545"/>
<text text-anchor="middle" x="607.6246" y="-290.3" font-family="Times,serif" font-size="14.00" fill="#000000">too many attempts</text>
</g>
<!-- BACKOFF -->
<g id="node6" class="node">
<title>BACKOFF</title>
<ellipse fill="none" stroke="#000000" cx="451.6246" cy="-18" rx="58.4896" ry="18"/>
<text text-anchor="middle" x="451.6246" y="-14.3" font-family="Times,serif" font-size="14.00" fill="#000000">BACKOFF</text>
</g>
<!-- JAMMING&#45;&gt;BACKOFF -->
<g id="edge10" class="edge">
<title>JAMMING&#45;&gt;BACKOFF</title>
<path fill="none" stroke="#000000" d="M451.6246,-86.9735C451.6246,-75.1918 451.6246,-59.5607 451.6246,-46.1581"/>
<polygon fill="#000000" stroke="#000000" points="455.1247,-46.0033 451.6246,-36.0034 448.1247,-46.0034 455.1247,-46.0033"/>
<text text-anchor="middle" x="482.6246" y="-57.8" font-family="Times,serif" font-size="14.00" fill="#000000">jam sent</text>
</g>
<!-- BACKOFF&#45;&gt;TX_IDLE -->
<g id="edge13" class="edge">
<title>BACKOFF&#45;&gt;TX_IDLE</title>
<path fill="none" stroke="#000000" d="M505.0673,-25.4366C579.0397,-37.2556 703.6246,-63.3445 703.6246,-105 703.6246,-396 703.6246,-396 703.6246,-396 703.6246,-440.5477 572.649,-472.6594 493.8231,-487.9515"/>
<polygon fill="#000000" stroke="#000000" points="492.7069,-484.601 483.5377,-489.9091 494.0157,-491.4776 492.7069,-484.601"/>
<text text-anchor="middle" x="762.6246" y="-239.3" font-family="Times,serif" font-size="14.00" fill="#000000">carrier detected</text>
</g>
<!-- BACKOFF&#45;&gt;WAIT_IFG -->
<g id="edge12" class="edge">
<title>BACKOFF&#45;&gt;WAIT_IFG</title>
<path fill="none" stroke="#000000" d="M395.802,-23.5236C312.5708,-33.3287 165.6246,-57.3824 165.6246,-105 165.6246,-294 165.6246,-294 165.6246,-294 165.6246,-325.5274 174.7163,-333.3901 191.6246,-360 194.0768,-363.8592 196.9777,-367.6688 200.035,-371.2828"/>
<polygon fill="#000000" stroke="#000000" points="197.5578,-373.7615 206.8642,-378.8253 202.7468,-369.0632 197.5578,-373.7615"/>
<text text-anchor="middle" x="201.6246" y="-188.3" font-family="Times,serif" font-size="14.00" fill="#000000">no carrier</text>
</g>
</g>
</svg>
