<?xml version="1.0" encoding="UTF-8" standalone="no"?>
<!DOCTYPE svg PUBLIC "-//W3C//DTD SVG 1.1//EN"
 "http://www.w3.org/Graphics/SVG/1.1/DTD/svg11.dtd">
<!-- Generated by graphviz version 2.43.0 (0)
 -->
<!-- Title: g Pages: 1 -->
<svg width="504pt" height="103pt"
 viewBox="0.00 0.00 504.00 102.81" xmlns="http://www.w3.org/2000/svg" xmlns:xlink="http://www.w3.org/1999/xlink">
<g id="graph0" class="graph" transform="scale(3.23 3.23) rotate(0) translate(4 328)">
<title>g</title>
<polygon fill="white" stroke="transparent" points="-4,4 -4,-328 1623.5,-328 1623.5,4 -4,4"/>
<!-- IMobility -->
<g id="node1" class="node">
<title>IMobility</title>
<polygon fill="none" stroke="black" points="754.5,-324 673.5,-324 673.5,-288 754.5,-288 754.5,-324"/>
<text text-anchor="middle" x="714" y="-302.3" font-family="Times,serif" font-size="14.00">IMobility</text>
</g>
<!-- MobilityBase -->
<g id="node2" class="node">
<title>MobilityBase</title>
<polygon fill="none" stroke="black" points="769,-252 659,-252 659,-216 769,-216 769,-252"/>
<text text-anchor="middle" x="714" y="-230.3" font-family="Times,serif" font-size="14.00">MobilityBase</text>
</g>
<!-- MobilityBase&#45;&gt;IMobility -->
<g id="edge1" class="edge">
<title>MobilityBase&#45;&gt;IMobility</title>
<path fill="none" stroke="black" d="M714,-252.3C714,-260.02 714,-269.29 714,-277.89"/>
<polygon fill="none" stroke="black" points="710.5,-277.9 714,-287.9 717.5,-277.9 710.5,-277.9"/>
</g>
<!-- MovingMobilityBase -->
<g id="node3" class="node">
<title>MovingMobilityBase</title>
<polygon fill="none" stroke="black" points="708,-180 544,-180 544,-144 708,-144 708,-180"/>
<text text-anchor="middle" x="626" y="-158.3" font-family="Times,serif" font-size="14.00">MovingMobilityBase</text>
</g>
<!-- MovingMobilityBase&#45;&gt;MobilityBase -->
<g id="edge2" class="edge">
<title>MovingMobilityBase&#45;&gt;MobilityBase</title>
<path fill="none" stroke="black" d="M647.75,-180.3C658.84,-189.12 672.47,-199.97 684.49,-209.53"/>
<polygon fill="black" stroke="black" points="682.49,-212.41 692.5,-215.9 686.85,-206.93 682.49,-212.41"/>
</g>
<!-- StationaryMobility -->
<g id="node4" class="node">
<title>StationaryMobility</title>
<polygon fill="none" stroke="black" points="987.5,-180 836.5,-180 836.5,-144 987.5,-144 987.5,-180"/>
<text text-anchor="middle" x="912" y="-158.3" font-family="Times,serif" font-size="14.00">StationaryMobility</text>
</g>
<!-- StationaryMobility&#45;&gt;MobilityBase -->
<g id="edge3" class="edge">
<title>StationaryMobility&#45;&gt;MobilityBase</title>
<path fill="none" stroke="black" d="M863.82,-180.03C836.15,-189.81 801.22,-202.16 772.05,-212.48"/>
<polygon fill="black" stroke="black" points="770.66,-209.26 762.4,-215.89 772.99,-215.86 770.66,-209.26"/>
</g>
<!-- StaticGridMobility -->
<g id="node5" class="node">
<title>StaticGridMobility</title>
<polygon fill="none" stroke="black" points="1096.5,-108 947.5,-108 947.5,-72 1096.5,-72 1096.5,-108"/>
<text text-anchor="middle" x="1022" y="-86.3" font-family="Times,serif" font-size="14.00">StaticGridMobility</text>
</g>
<!-- StaticGridMobility&#45;&gt;StationaryMobility -->
<g id="edge4" class="edge">
<title>StaticGridMobility&#45;&gt;StationaryMobility</title>
<path fill="none" stroke="black" d="M995.09,-108.12C980.84,-117.19 963.15,-128.45 947.76,-138.24"/>
<polygon fill="black" stroke="black" points="945.57,-135.49 939.01,-143.81 949.33,-141.39 945.57,-135.49"/>
</g>
<!-- CircleMobility -->
<g id="node6" class="node">
<title>CircleMobility</title>
<polygon fill="none" stroke="black" points="394,-108 276,-108 276,-72 394,-72 394,-108"/>
<text text-anchor="middle" x="335" y="-86.3" font-family="Times,serif" font-size="14.00">CircleMobility</text>
</g>
<!-- CircleMobility&#45;&gt;MovingMobilityBase -->
<g id="edge5" class="edge">
<title>CircleMobility&#45;&gt;MovingMobilityBase</title>
<path fill="none" stroke="black" d="M394.33,-105.88C397.26,-106.6 400.16,-107.31 403,-108 449.44,-119.32 501.4,-131.69 543.47,-141.63"/>
<polygon fill="black" stroke="black" points="542.85,-145.08 553.39,-143.97 544.46,-138.26 542.85,-145.08"/>
</g>
<!-- LinearMobility -->
<g id="node7" class="node">
<title>LinearMobility</title>
<polygon fill="none" stroke="black" points="534,-108 412,-108 412,-72 534,-72 534,-108"/>
<text text-anchor="middle" x="473" y="-86.3" font-family="Times,serif" font-size="14.00">LinearMobility</text>
</g>
<!-- LinearMobility&#45;&gt;MovingMobilityBase -->
<g id="edge6" class="edge">
<title>LinearMobility&#45;&gt;MovingMobilityBase</title>
<path fill="none" stroke="black" d="M510.43,-108.12C531.25,-117.65 557.35,-129.59 579.48,-139.72"/>
<polygon fill="black" stroke="black" points="578.14,-142.95 588.69,-143.93 581.06,-136.59 578.14,-142.95"/>
</g>
<!-- RectangleMobility -->
<g id="node8" class="node">
<title>RectangleMobility</title>
<polygon fill="none" stroke="black" points="699.5,-108 552.5,-108 552.5,-72 699.5,-72 699.5,-108"/>
<text text-anchor="middle" x="626" y="-86.3" font-family="Times,serif" font-size="14.00">RectangleMobility</text>
</g>
<!-- RectangleMobility&#45;&gt;MovingMobilityBase -->
<g id="edge7" class="edge">
<title>RectangleMobility&#45;&gt;MovingMobilityBase</title>
<path fill="none" stroke="black" d="M626,-108.3C626,-116.02 626,-125.29 626,-133.89"/>
<polygon fill="black" stroke="black" points="622.5,-133.9 626,-143.9 629.5,-133.9 622.5,-133.9"/>
</g>
<!-- LineSegmentsMobilityBase -->
<g id="node9" class="node">
<title>LineSegmentsMobilityBase</title>
<polygon fill="none" stroke="black" points="930,-108 718,-108 718,-72 930,-72 930,-108"/>
<text text-anchor="middle" x="824" y="-86.3" font-family="Times,serif" font-size="14.00">LineSegmentsMobilityBase</text>
</g>
<!-- LineSegmentsMobilityBase&#45;&gt;MovingMobilityBase -->
<g id="edge8" class="edge">
<title>LineSegmentsMobilityBase&#45;&gt;MovingMobilityBase</title>
<path fill="none" stroke="black" d="M775.82,-108.03C748.15,-117.81 713.22,-130.16 684.05,-140.48"/>
<polygon fill="black" stroke="black" points="682.66,-137.26 674.4,-143.89 684.99,-143.86 682.66,-137.26"/>
</g>
<!-- TractorMobility -->
<g id="node10" class="node">
<title>TractorMobility</title>
<polygon fill="none" stroke="black" points="128,-36 0,-36 0,0 128,0 128,-36"/>
<text text-anchor="middle" x="64" y="-14.3" font-family="Times,serif" font-size="14.00">TractorMobility</text>
</g>
<!-- TractorMobility&#45;&gt;LineSegmentsMobilityBase -->
<g id="edge9" class="edge">
<title>TractorMobility&#45;&gt;LineSegmentsMobilityBase</title>
<path fill="none" stroke="black" d="M128.38,-34.6C131.28,-35.11 134.17,-35.58 137,-36 385.26,-72.48 453.31,-46.25 707.55,-72.02"/>
<polygon fill="black" stroke="black" points="707.54,-75.54 717.84,-73.08 708.25,-68.58 707.54,-75.54"/>
</g>
<!-- RandomWPMobility -->
<g id="node11" class="node">
<title>RandomWPMobility</title>
<polygon fill="none" stroke="black" points="304,-36 146,-36 146,0 304,0 304,-36"/>
<text text-anchor="middle" x="225" y="-14.3" font-family="Times,serif" font-size="14.00">RandomWPMobility</text>
</g>
<!-- RandomWPMobility&#45;&gt;LineSegmentsMobilityBase -->
<g id="edge10" class="edge">
<title>RandomWPMobility&#45;&gt;LineSegmentsMobilityBase</title>
<path fill="none" stroke="black" d="M304.09,-34.67C307.1,-35.14 310.07,-35.58 313,-36 484.3,-60.29 531.22,-51.55 707.68,-72.01"/>
<polygon fill="black" stroke="black" points="707.49,-75.51 717.83,-73.2 708.31,-68.56 707.49,-75.51"/>
</g>
<!-- GaussMarkovMobilityBase -->
<g id="node12" class="node">
<title>GaussMarkovMobilityBase</title>
<polygon fill="none" stroke="black" points="530,-36 322,-36 322,0 530,0 530,-36"/>
<text text-anchor="middle" x="426" y="-14.3" font-family="Times,serif" font-size="14.00">GaussMarkovMobilityBase</text>
</g>
<!-- GaussMarkovMobilityBase&#45;&gt;LineSegmentsMobilityBase -->
<g id="edge11" class="edge">
<title>GaussMarkovMobilityBase&#45;&gt;LineSegmentsMobilityBase</title>
<path fill="none" stroke="black" d="M522.85,-36.03C581.59,-46.37 656.63,-59.56 717.1,-70.2"/>
<polygon fill="black" stroke="black" points="716.6,-73.66 727.06,-71.95 717.82,-66.77 716.6,-73.66"/>
</g>
<!-- MassMobility -->
<g id="node13" class="node">
<title>MassMobility</title>
<polygon fill="none" stroke="black" points="661.5,-36 548.5,-36 548.5,0 661.5,0 661.5,-36"/>
<text text-anchor="middle" x="605" y="-14.3" font-family="Times,serif" font-size="14.00">MassMobility</text>
</g>
<!-- MassMobility&#45;&gt;LineSegmentsMobilityBase -->
<g id="edge12" class="edge">
<title>MassMobility&#45;&gt;LineSegmentsMobilityBase</title>
<path fill="none" stroke="black" d="M658.29,-36.03C689.16,-45.9 728.2,-58.38 760.63,-68.75"/>
<polygon fill="black" stroke="black" points="759.88,-72.18 770.47,-71.89 762.01,-65.51 759.88,-72.18"/>
</g>
<!-- ChiangMobility -->
<g id="node14" class="node">
<title>ChiangMobility</title>
<polygon fill="none" stroke="black" points="806,-36 680,-36 680,0 806,0 806,-36"/>
<text text-anchor="middle" x="743" y="-14.3" font-family="Times,serif" font-size="14.00">ChiangMobility</text>
</g>
<!-- ChiangMobility&#45;&gt;LineSegmentsMobilityBase -->
<g id="edge13" class="edge">
<title>ChiangMobility&#45;&gt;LineSegmentsMobilityBase</title>
<path fill="none" stroke="black" d="M763.02,-36.3C773.13,-45.03 785.54,-55.76 796.52,-65.25"/>
<polygon fill="black" stroke="black" points="794.35,-68.01 804.21,-71.9 798.93,-62.71 794.35,-68.01"/>
</g>
<!-- ConstSpeedMobility -->
<g id="node15" class="node">
<title>ConstSpeedMobility</title>
<polygon fill="none" stroke="black" points="985.5,-36 824.5,-36 824.5,0 985.5,0 985.5,-36"/>
<text text-anchor="middle" x="905" y="-14.3" font-family="Times,serif" font-size="14.00">ConstSpeedMobility</text>
</g>
<!-- ConstSpeedMobility&#45;&gt;LineSegmentsMobilityBase -->
<g id="edge14" class="edge">
<title>ConstSpeedMobility&#45;&gt;LineSegmentsMobilityBase</title>
<path fill="none" stroke="black" d="M884.98,-36.3C874.87,-45.03 862.46,-55.76 851.48,-65.25"/>
<polygon fill="black" stroke="black" points="849.07,-62.71 843.79,-71.9 853.65,-68.01 849.07,-62.71"/>
</g>
<!-- ANSimMobility -->
<g id="node16" class="node">
<title>ANSimMobility</title>
<polygon fill="none" stroke="black" points="1128.5,-36 1003.5,-36 1003.5,0 1128.5,0 1128.5,-36"/>
<text text-anchor="middle" x="1066" y="-14.3" font-family="Times,serif" font-size="14.00">ANSimMobility</text>
</g>
<!-- ANSimMobility&#45;&gt;LineSegmentsMobilityBase -->
<g id="edge15" class="edge">
<title>ANSimMobility&#45;&gt;LineSegmentsMobilityBase</title>
<path fill="none" stroke="black" d="M1007.11,-36.03C972.71,-45.99 929.12,-58.59 893.1,-69.01"/>
<polygon fill="black" stroke="black" points="891.79,-65.75 883.15,-71.89 893.73,-72.47 891.79,-65.75"/>
</g>
<!-- BonnMotionMobility -->
<g id="node17" class="node">
<title>BonnMotionMobility</title>
<polygon fill="none" stroke="black" points="1309.5,-36 1146.5,-36 1146.5,0 1309.5,0 1309.5,-36"/>
<text text-anchor="middle" x="1228" y="-14.3" font-family="Times,serif" font-size="14.00">BonnMotionMobility</text>
</g>
<!-- BonnMotionMobility&#45;&gt;LineSegmentsMobilityBase -->
<g id="edge16" class="edge">
<title>BonnMotionMobility&#45;&gt;LineSegmentsMobilityBase</title>
<path fill="none" stroke="black" d="M1146.1,-34.54C1143.37,-35.04 1140.66,-35.52 1138,-36 1071.89,-47.82 997.82,-60.36 938.23,-70.27"/>
<polygon fill="black" stroke="black" points="937.33,-66.87 928.04,-71.96 938.48,-73.78 937.33,-66.87"/>
</g>
<!-- Ns2MotionMobility -->
<g id="node18" class="node">
<title>Ns2MotionMobility</title>
<polygon fill="none" stroke="black" points="1482.5,-36 1327.5,-36 1327.5,0 1482.5,0 1482.5,-36"/>
<text text-anchor="middle" x="1405" y="-14.3" font-family="Times,serif" font-size="14.00">Ns2MotionMobility</text>
</g>
<!-- Ns2MotionMobility&#45;&gt;LineSegmentsMobilityBase -->
<g id="edge17" class="edge">
<title>Ns2MotionMobility&#45;&gt;LineSegmentsMobilityBase</title>
<path fill="none" stroke="black" d="M1327.24,-34.73C1324.47,-35.18 1321.71,-35.6 1319,-36 1154.33,-60.01 1109.12,-51.92 940.16,-71.9"/>
<polygon fill="black" stroke="black" points="939.69,-68.43 930.18,-73.1 940.52,-75.38 939.69,-68.43"/>
</g>
<!-- TurtleMobility -->
<g id="node19" class="node">
<title>TurtleMobility</title>
<polygon fill="none" stroke="black" points="1619.5,-36 1500.5,-36 1500.5,0 1619.5,0 1619.5,-36"/>
<text text-anchor="middle" x="1560" y="-14.3" font-family="Times,serif" font-size="14.00">TurtleMobility</text>
</g>
<!-- TurtleMobility&#45;&gt;LineSegmentsMobilityBase -->
<g id="edge18" class="edge">
<title>TurtleMobility&#45;&gt;LineSegmentsMobilityBase</title>
<path fill="none" stroke="black" d="M1500.42,-34.54C1497.58,-35.08 1494.77,-35.57 1492,-36 1251.98,-73.5 1185.72,-46.72 940.47,-71.91"/>
<polygon fill="black" stroke="black" points="939.75,-68.46 930.17,-72.98 940.48,-75.42 939.75,-68.46"/>
</g>
</g>
</svg>
