<?xml version="1.0" encoding="UTF-8" standalone="no"?>
<!DOCTYPE svg PUBLIC "-//W3C//DTD SVG 1.1//EN"
 "http://www.w3.org/Graphics/SVG/1.1/DTD/svg11.dtd">
<!-- Generated by graphviz version 2.40.1 (20161225.0304)
 -->
<!-- Title: g Pages: 1 -->
<svg width="457pt" height="260pt"
 viewBox="0.00 0.00 456.50 260.00" xmlns="http://www.w3.org/2000/svg" xmlns:xlink="http://www.w3.org/1999/xlink">
<g id="graph0" class="graph" transform="scale(1 1) rotate(0) translate(4 256)">
<title>g</title>
<polygon fill="#ffffff" stroke="transparent" points="-4,4 -4,-256 452.5,-256 452.5,4 -4,4"/>
<!-- TCPAlgorithm -->
<g id="node1" class="node">
<title>TCPAlgorithm</title>
<polygon fill="none" stroke="#000000" points="205.5,-252 87.5,-252 87.5,-216 205.5,-216 205.5,-252"/>
<text text-anchor="middle" x="146.5" y="-230.3" font-family="Times,serif" font-size="14.00" fill="#000000">TCPAlgorithm</text>
</g>
<!-- DumbTCP -->
<g id="node2" class="node">
<title>DumbTCP</title>
<polygon fill="none" stroke="#000000" points="133.5,-180 43.5,-180 43.5,-144 133.5,-144 133.5,-180"/>
<text text-anchor="middle" x="88.5" y="-158.3" font-family="Times,serif" font-size="14.00" fill="#000000">DumbTCP</text>
</g>
<!-- DumbTCP&#45;&gt;TCPAlgorithm -->
<g id="edge1" class="edge">
<title>DumbTCP&#45;&gt;TCPAlgorithm</title>
<path fill="none" stroke="#000000" d="M103.1358,-180.1686C109.8161,-188.4614 117.8568,-198.443 125.1904,-207.5467"/>
<polygon fill="none" stroke="#000000" points="122.6681,-209.9948 131.6671,-215.5867 128.1194,-205.6035 122.6681,-209.9948"/>
</g>
<!-- TCPBaseAlg -->
<g id="node3" class="node">
<title>TCPBaseAlg</title>
<polygon fill="none" stroke="#000000" points="257.5,-180 151.5,-180 151.5,-144 257.5,-144 257.5,-180"/>
<text text-anchor="middle" x="204.5" y="-158.3" font-family="Times,serif" font-size="14.00" fill="#000000">TCPBaseAlg</text>
</g>
<!-- TCPBaseAlg&#45;&gt;TCPAlgorithm -->
<g id="edge2" class="edge">
<title>TCPBaseAlg&#45;&gt;TCPAlgorithm</title>
<path fill="none" stroke="#000000" d="M189.8642,-180.1686C183.1839,-188.4614 175.1432,-198.443 167.8096,-207.5467"/>
<polygon fill="none" stroke="#000000" points="164.8806,-205.6035 161.3329,-215.5867 170.3319,-209.9948 164.8806,-205.6035"/>
</g>
<!-- TCPNoCongestionControl -->
<g id="node4" class="node">
<title>TCPNoCongestionControl</title>
<polygon fill="none" stroke="#000000" points="203,-108 0,-108 0,-72 203,-72 203,-108"/>
<text text-anchor="middle" x="101.5" y="-86.3" font-family="Times,serif" font-size="14.00" fill="#000000">TCPNoCongestionControl</text>
</g>
<!-- TCPNoCongestionControl&#45;&gt;TCPBaseAlg -->
<g id="edge3" class="edge">
<title>TCPNoCongestionControl&#45;&gt;TCPBaseAlg</title>
<path fill="none" stroke="#000000" d="M127.4912,-108.1686C140.4216,-117.2073 156.2222,-128.2524 170.1383,-137.9802"/>
<polygon fill="#000000" stroke="#000000" points="168.3157,-140.9765 178.5171,-143.8372 172.3263,-135.2392 168.3157,-140.9765"/>
</g>
<!-- TCPTahoeRenoFamily -->
<g id="node5" class="node">
<title>TCPTahoeRenoFamily</title>
<polygon fill="none" stroke="#000000" points="395.5,-108 221.5,-108 221.5,-72 395.5,-72 395.5,-108"/>
<text text-anchor="middle" x="308.5" y="-86.3" font-family="Times,serif" font-size="14.00" fill="#000000">TCPTahoeRenoFamily</text>
</g>
<!-- TCPTahoeRenoFamily&#45;&gt;TCPBaseAlg -->
<g id="edge4" class="edge">
<title>TCPTahoeRenoFamily&#45;&gt;TCPBaseAlg</title>
<path fill="none" stroke="#000000" d="M282.2564,-108.1686C269.2005,-117.2073 253.2465,-128.2524 239.1953,-137.9802"/>
<polygon fill="#000000" stroke="#000000" points="236.9649,-135.2674 230.7352,-143.8372 240.9494,-141.0227 236.9649,-135.2674"/>
</g>
<!-- TCPTahoe -->
<g id="node6" class="node">
<title>TCPTahoe</title>
<polygon fill="none" stroke="#000000" points="248.5,-36 158.5,-36 158.5,0 248.5,0 248.5,-36"/>
<text text-anchor="middle" x="203.5" y="-14.3" font-family="Times,serif" font-size="14.00" fill="#000000">TCPTahoe</text>
</g>
<!-- TCPTahoe&#45;&gt;TCPTahoeRenoFamily -->
<g id="edge5" class="edge">
<title>TCPTahoe&#45;&gt;TCPTahoeRenoFamily</title>
<path fill="none" stroke="#000000" d="M229.9959,-36.1686C243.1774,-45.2073 259.2847,-56.2524 273.4711,-65.9802"/>
<polygon fill="#000000" stroke="#000000" points="271.7859,-69.0684 282.0125,-71.8372 275.7446,-63.2953 271.7859,-69.0684"/>
</g>
<!-- TCPReno -->
<g id="node7" class="node">
<title>TCPReno</title>
<polygon fill="none" stroke="#000000" points="350,-36 267,-36 267,0 350,0 350,-36"/>
<text text-anchor="middle" x="308.5" y="-14.3" font-family="Times,serif" font-size="14.00" fill="#000000">TCPReno</text>
</g>
<!-- TCPReno&#45;&gt;TCPTahoeRenoFamily -->
<g id="edge6" class="edge">
<title>TCPReno&#45;&gt;TCPTahoeRenoFamily</title>
<path fill="none" stroke="#000000" d="M308.5,-36.1686C308.5,-43.869 308.5,-53.0257 308.5,-61.5834"/>
<polygon fill="#000000" stroke="#000000" points="305.0001,-61.5867 308.5,-71.5867 312.0001,-61.5868 305.0001,-61.5867"/>
</g>
<!-- TCPNew -->
<g id="node8" class="node">
<title>TCPNew</title>
<polygon fill="none" stroke="#000000" points="448.5,-36 368.5,-36 368.5,0 448.5,0 448.5,-36"/>
<text text-anchor="middle" x="408.5" y="-14.3" font-family="Times,serif" font-size="14.00" fill="#000000">TCPNew</text>
</g>
<!-- TCPNew&#45;&gt;TCPTahoeRenoFamily -->
<g id="edge7" class="edge">
<title>TCPNew&#45;&gt;TCPTahoeRenoFamily</title>
<path fill="none" stroke="#000000" d="M383.2658,-36.1686C370.712,-45.2073 355.3717,-56.2524 341.8609,-65.9802"/>
<polygon fill="#000000" stroke="#000000" points="339.7964,-63.1537 333.7261,-71.8372 343.8866,-68.8345 339.7964,-63.1537"/>
</g>
</g>
</svg>
