<?xml version="1.0" encoding="UTF-8" standalone="no"?>
<!DOCTYPE svg PUBLIC "-//W3C//DTD SVG 1.1//EN"
 "http://www.w3.org/Graphics/SVG/1.1/DTD/svg11.dtd">
<!-- Generated by graphviz version 2.43.0 (0)
 -->
<!-- Title: g Pages: 1 -->
<svg width="449pt" height="260pt"
 viewBox="0.00 0.00 449.00 260.00" xmlns="http://www.w3.org/2000/svg" xmlns:xlink="http://www.w3.org/1999/xlink">
<g id="graph0" class="graph" transform="scale(1 1) rotate(0) translate(4 256)">
<title>g</title>
<polygon fill="white" stroke="transparent" points="-4,4 -4,-256 445,-256 445,4 -4,4"/>
<!-- TCPAlgorithm -->
<g id="node1" class="node">
<title>TCPAlgorithm</title>
<polygon fill="none" stroke="black" points="202,-252 86,-252 86,-216 202,-216 202,-252"/>
<text text-anchor="middle" x="144" y="-230.3" font-family="Times,serif" font-size="14.00">TCPAlgorithm</text>
</g>
<!-- DumbTCP -->
<g id="node2" class="node">
<title>DumbTCP</title>
<polygon fill="none" stroke="black" points="131.5,-180 42.5,-180 42.5,-144 131.5,-144 131.5,-180"/>
<text text-anchor="middle" x="87" y="-158.3" font-family="Times,serif" font-size="14.00">DumbTCP</text>
</g>
<!-- DumbTCP&#45;&gt;TCPAlgorithm -->
<g id="edge1" class="edge">
<title>DumbTCP&#45;&gt;TCPAlgorithm</title>
<path fill="none" stroke="black" d="M101.09,-180.3C107.92,-188.7 116.26,-198.93 123.76,-208.14"/>
<polygon fill="none" stroke="black" points="121.04,-210.35 130.07,-215.9 126.47,-205.93 121.04,-210.35"/>
</g>
<!-- TCPBaseAlg -->
<g id="node3" class="node">
<title>TCPBaseAlg</title>
<polygon fill="none" stroke="black" points="254,-180 150,-180 150,-144 254,-144 254,-180"/>
<text text-anchor="middle" x="202" y="-158.3" font-family="Times,serif" font-size="14.00">TCPBaseAlg</text>
</g>
<!-- TCPBaseAlg&#45;&gt;TCPAlgorithm -->
<g id="edge2" class="edge">
<title>TCPBaseAlg&#45;&gt;TCPAlgorithm</title>
<path fill="none" stroke="black" d="M187.66,-180.3C180.71,-188.7 172.23,-198.93 164.6,-208.14"/>
<polygon fill="none" stroke="black" points="161.86,-205.96 158.17,-215.9 167.25,-210.43 161.86,-205.96"/>
</g>
<!-- TCPNoCongestionControl -->
<g id="node4" class="node">
<title>TCPNoCongestionControl</title>
<polygon fill="none" stroke="black" points="200,-108 0,-108 0,-72 200,-72 200,-108"/>
<text text-anchor="middle" x="100" y="-86.3" font-family="Times,serif" font-size="14.00">TCPNoCongestionControl</text>
</g>
<!-- TCPNoCongestionControl&#45;&gt;TCPBaseAlg -->
<g id="edge3" class="edge">
<title>TCPNoCongestionControl&#45;&gt;TCPBaseAlg</title>
<path fill="none" stroke="black" d="M124.95,-108.12C138.04,-117.11 154.26,-128.24 168.44,-137.97"/>
<polygon fill="black" stroke="black" points="166.73,-141.04 176.95,-143.81 170.69,-135.27 166.73,-141.04"/>
</g>
<!-- TCPTahoeRenoFamily -->
<g id="node5" class="node">
<title>TCPTahoeRenoFamily</title>
<polygon fill="none" stroke="black" points="390,-108 218,-108 218,-72 390,-72 390,-108"/>
<text text-anchor="middle" x="304" y="-86.3" font-family="Times,serif" font-size="14.00">TCPTahoeRenoFamily</text>
</g>
<!-- TCPTahoeRenoFamily&#45;&gt;TCPBaseAlg -->
<g id="edge4" class="edge">
<title>TCPTahoeRenoFamily&#45;&gt;TCPBaseAlg</title>
<path fill="none" stroke="black" d="M279.05,-108.12C265.96,-117.11 249.74,-128.24 235.56,-137.97"/>
<polygon fill="black" stroke="black" points="233.31,-135.27 227.05,-143.81 237.27,-141.04 233.31,-135.27"/>
</g>
<!-- TCPTahoe -->
<g id="node6" class="node">
<title>TCPTahoe</title>
<polygon fill="none" stroke="black" points="245,-36 157,-36 157,0 245,0 245,-36"/>
<text text-anchor="middle" x="201" y="-14.3" font-family="Times,serif" font-size="14.00">TCPTahoe</text>
</g>
<!-- TCPTahoe&#45;&gt;TCPTahoeRenoFamily -->
<g id="edge5" class="edge">
<title>TCPTahoe&#45;&gt;TCPTahoeRenoFamily</title>
<path fill="none" stroke="black" d="M226.2,-36.12C239.41,-45.11 255.79,-56.24 270.11,-65.97"/>
<polygon fill="black" stroke="black" points="268.47,-69.08 278.71,-71.81 272.4,-63.29 268.47,-69.08"/>
</g>
<!-- TCPReno -->
<g id="node7" class="node">
<title>TCPReno</title>
<polygon fill="none" stroke="black" points="345,-36 263,-36 263,0 345,0 345,-36"/>
<text text-anchor="middle" x="304" y="-14.3" font-family="Times,serif" font-size="14.00">TCPReno</text>
</g>
<!-- TCPReno&#45;&gt;TCPTahoeRenoFamily -->
<g id="edge6" class="edge">
<title>TCPReno&#45;&gt;TCPTahoeRenoFamily</title>
<path fill="none" stroke="black" d="M304,-36.3C304,-44.02 304,-53.29 304,-61.89"/>
<polygon fill="black" stroke="black" points="300.5,-61.9 304,-71.9 307.5,-61.9 300.5,-61.9"/>
</g>
<!-- TCPNew -->
<g id="node8" class="node">
<title>TCPNew</title>
<polygon fill="none" stroke="black" points="441,-36 363,-36 363,0 441,0 441,-36"/>
<text text-anchor="middle" x="402" y="-14.3" font-family="Times,serif" font-size="14.00">TCPNew</text>
</g>
<!-- TCPNew&#45;&gt;TCPTahoeRenoFamily -->
<g id="edge7" class="edge">
<title>TCPNew&#45;&gt;TCPTahoeRenoFamily</title>
<path fill="none" stroke="black" d="M378.03,-36.12C365.45,-45.11 349.87,-56.24 336.25,-65.97"/>
<polygon fill="black" stroke="black" points="334.17,-63.15 328.07,-71.81 338.24,-68.85 334.17,-63.15"/>
</g>
</g>
</svg>
