<?xml version="1.0" encoding="UTF-8"?><svg xmlns="http://www.w3.org/2000/svg" xmlns:xlink="http://www.w3.org/1999/xlink" stroke-dasharray="none" shape-rendering="auto" font-family="'Dialog'" width="861" text-rendering="auto" fill-opacity="1" contentScriptType="text/ecmascript" color-interpolation="auto" color-rendering="auto" preserveAspectRatio="xMidYMid meet" font-size="12" fill="black" stroke="black" image-rendering="auto" stroke-miterlimit="10" zoomAndPan="magnify" version="1.0" stroke-linecap="square" stroke-linejoin="miter" contentStyleType="text/css" font-style="normal" height="501" stroke-width="1" stroke-dashoffset="0" font-weight="normal" stroke-opacity="1">
    <!--Generated by the Batik Graphics2D SVG Generator-->
    <defs id="genericDefs"/>
    <g>
        <defs id="defs1">
            <clipPath clipPathUnits="userSpaceOnUse" id="clipPath1">
                <path d="M53 25 L821 25 L821 464 L53 464 L53 25 Z"/>
            </clipPath>
            <clipPath clipPathUnits="userSpaceOnUse" id="clipPath2">
                <path d="M-1 -1 L862 -1 L862 502 L-1 502 L-1 -1 Z"/>
            </clipPath>
            <clipPath clipPathUnits="userSpaceOnUse" id="clipPath3">
                <path d="M654 30 L817 30 L817 74 L654 74 L654 30 Z"/>
            </clipPath>
            <clipPath clipPathUnits="userSpaceOnUse" id="clipPath4">
                <path d="M53 462 L821 462 L821 502 L53 502 L53 462 Z"/>
            </clipPath>
        </defs>
        <g font-size="14" fill="white" text-rendering="optimizeLegibility" font-family="'Ubuntu'" stroke-linejoin="round" stroke="white" stroke-width="0" stroke-miterlimit="0">
            <rect x="54" y="26" clip-path="url(#clipPath1)" width="766" height="437" stroke="none"/>
        </g>
        <g stroke-linecap="butt" font-size="14" fill="rgb(204,204,204)" text-rendering="optimizeLegibility" font-family="'Ubuntu'" stroke-dasharray="3,3" stroke="rgb(204,204,204)">
            <line clip-path="url(#clipPath1)" fill="none" x1="54" x2="820" y1="463" y2="463"/>
            <line clip-path="url(#clipPath1)" fill="none" x1="54" x2="820" y1="380" y2="380"/>
            <line clip-path="url(#clipPath1)" fill="none" x1="54" x2="820" y1="298" y2="298"/>
            <line clip-path="url(#clipPath1)" fill="none" x1="54" x2="820" y1="216" y2="216"/>
            <line clip-path="url(#clipPath1)" fill="none" x1="54" x2="820" y1="134" y2="134"/>
            <line clip-path="url(#clipPath1)" fill="none" x1="54" x2="820" y1="52" y2="52"/>
            <rect x="479" y="65" clip-path="url(#clipPath1)" fill="rgb(255,127,14)" width="170" height="397" stroke="none"/>
            <rect x="479" y="65" clip-path="url(#clipPath1)" fill="none" width="170" stroke-dasharray="none" height="397" stroke="black"/>
            <rect x="224" y="202" clip-path="url(#clipPath1)" fill="rgb(31,119,180)" width="170" stroke-dasharray="none" height="260" stroke="none"/>
            <rect x="224" y="202" clip-path="url(#clipPath1)" fill="none" width="170" stroke-dasharray="none" height="260" stroke="black"/>
            <rect x="54" y="26" clip-path="url(#clipPath2)" fill="none" width="766" stroke-dasharray="none" height="437" stroke="black"/>
            <line clip-path="url(#clipPath2)" fill="none" x1="55" x2="819" y1="463" y2="463" stroke-dasharray="none"/>
        </g>
        <g text-rendering="optimizeLegibility" font-size="13" font-family="'Arial'" stroke-linecap="butt">
            <text xml:space="preserve" x="322" y="12" clip-path="url(#clipPath2)" stroke="none">Number of packets sent and received</text>
            <rect x="655" y="31" clip-path="url(#clipPath3)" fill="white" width="160" opacity="0.7529" height="41" stroke="none"/>
            <polygon fill="rgb(31,119,180)" clip-path="url(#clipPath3)" points=" 664 38 664 46 672 46 672 38" stroke="none"/>
            <text x="677" font-size="10" y="46" clip-path="url(#clipPath3)" stroke="none" xml:space="preserve">title=packets received, count</text>
            <polygon fill="rgb(255,127,14)" clip-path="url(#clipPath3)" points=" 664 56 664 64 672 64 672 56" stroke="none"/>
            <text x="677" font-size="10" y="64" clip-path="url(#clipPath3)" stroke="none" xml:space="preserve">title=packets sent, count</text>
            <line clip-path="url(#clipPath2)" fill="none" x1="52" x2="52" y1="26" y2="463"/>
            <line clip-path="url(#clipPath2)" fill="none" x1="822" x2="822" y1="26" y2="463"/>
            <line clip-path="url(#clipPath2)" fill="none" x1="48" x2="52" y1="463" y2="463"/>
            <line clip-path="url(#clipPath2)" fill="none" x1="826" x2="822" y1="463" y2="463"/>
            <text x="41" font-size="10" y="467" clip-path="url(#clipPath2)" stroke="none" xml:space="preserve">0</text>
            <text x="829" font-size="10" y="467" clip-path="url(#clipPath2)" stroke="none" xml:space="preserve">0</text>
            <line clip-path="url(#clipPath2)" fill="none" x1="50" x2="52" y1="421" y2="421"/>
            <line clip-path="url(#clipPath2)" fill="none" x1="824" x2="822" y1="421" y2="421"/>
            <line clip-path="url(#clipPath2)" fill="none" x1="48" x2="52" y1="380" y2="380"/>
            <line clip-path="url(#clipPath2)" fill="none" x1="826" x2="822" y1="380" y2="380"/>
            <text x="30" font-size="10" y="384" clip-path="url(#clipPath2)" stroke="none" xml:space="preserve">200</text>
            <text x="829" font-size="10" y="384" clip-path="url(#clipPath2)" stroke="none" xml:space="preserve">200</text>
            <line clip-path="url(#clipPath2)" fill="none" x1="50" x2="52" y1="339" y2="339"/>
            <line clip-path="url(#clipPath2)" fill="none" x1="824" x2="822" y1="339" y2="339"/>
            <line clip-path="url(#clipPath2)" fill="none" x1="48" x2="52" y1="298" y2="298"/>
            <line clip-path="url(#clipPath2)" fill="none" x1="826" x2="822" y1="298" y2="298"/>
            <text x="30" font-size="10" y="302" clip-path="url(#clipPath2)" stroke="none" xml:space="preserve">400</text>
            <text x="829" font-size="10" y="302" clip-path="url(#clipPath2)" stroke="none" xml:space="preserve">400</text>
            <line clip-path="url(#clipPath2)" fill="none" x1="50" x2="52" y1="257" y2="257"/>
            <line clip-path="url(#clipPath2)" fill="none" x1="824" x2="822" y1="257" y2="257"/>
            <line clip-path="url(#clipPath2)" fill="none" x1="48" x2="52" y1="216" y2="216"/>
            <line clip-path="url(#clipPath2)" fill="none" x1="826" x2="822" y1="216" y2="216"/>
            <text x="30" font-size="10" y="220" clip-path="url(#clipPath2)" stroke="none" xml:space="preserve">600</text>
            <text x="829" font-size="10" y="220" clip-path="url(#clipPath2)" stroke="none" xml:space="preserve">600</text>
            <line clip-path="url(#clipPath2)" fill="none" x1="50" x2="52" y1="175" y2="175"/>
            <line clip-path="url(#clipPath2)" fill="none" x1="824" x2="822" y1="175" y2="175"/>
            <line clip-path="url(#clipPath2)" fill="none" x1="48" x2="52" y1="134" y2="134"/>
            <line clip-path="url(#clipPath2)" fill="none" x1="826" x2="822" y1="134" y2="134"/>
            <text x="30" font-size="10" y="138" clip-path="url(#clipPath2)" stroke="none" xml:space="preserve">800</text>
            <text x="829" font-size="10" y="138" clip-path="url(#clipPath2)" stroke="none" xml:space="preserve">800</text>
            <line clip-path="url(#clipPath2)" fill="none" x1="50" x2="52" y1="93" y2="93"/>
            <line clip-path="url(#clipPath2)" fill="none" x1="824" x2="822" y1="93" y2="93"/>
            <line clip-path="url(#clipPath2)" fill="none" x1="48" x2="52" y1="52" y2="52"/>
            <line clip-path="url(#clipPath2)" fill="none" x1="826" x2="822" y1="52" y2="52"/>
            <text x="21" font-size="10" y="56" clip-path="url(#clipPath2)" stroke="none" xml:space="preserve">1 000</text>
            <text x="829" font-size="10" y="56" clip-path="url(#clipPath2)" stroke="none" xml:space="preserve">1 000</text>
            <line clip-path="url(#clipPath4)" fill="none" x1="224" x2="649" y1="467" y2="467"/>
            <text x="224" font-size="10" y="478" clip-path="url(#clipPath4)" stroke="none" xml:space="preserve">General</text>
            <text x="412" font-size="10" y="498" clip-path="url(#clipPath4)" stroke="none" xml:space="preserve">experiment</text>
        </g>
    </g>
</svg>
